STARTFONT 2.3
FONT -FontForge-Monoton-Book-R-Normal--18-180-72-72-P-121-ISO10646-1
SIZE 18 72 72  4
FONTBOUNDINGBOX 34 28 -3 -7
COMMENT "Generated by fontforge, http://fontforge.sourceforge.net"
COMMENT "Copyright (c) 2011 by vernon adams. All rights reserved."
STARTPROPERTIES 41
FOUNDRY "FontForge"
FAMILY_NAME "Monoton"
WEIGHT_NAME "Book"
SLANT "R"
SETWIDTH_NAME "Normal"
ADD_STYLE_NAME ""
PIXEL_SIZE 18
POINT_SIZE 180
RESOLUTION_X 72
RESOLUTION_Y 72
SPACING "P"
AVERAGE_WIDTH 121
CHARSET_REGISTRY "ISO10646"
CHARSET_ENCODING "1"
FONTNAME_REGISTRY ""
CHARSET_COLLECTIONS "ISO8859-2 ISO8859-9 ISO8859-4 ISO10646-1"
BITS_PER_PIXEL 4
FONT_NAME "Monoton-Regular"
FACE_NAME "Monoton"
COPYRIGHT "Copyright (c) 2011 by vernon adams. All rights reserved."
FONT_VERSION "1.000"
FONT_ASCENT 14
FONT_DESCENT 4
UNDERLINE_POSITION -1
UNDERLINE_THICKNESS 1
X_HEIGHT 12
CAP_HEIGHT 14
DEFAULT_CHAR 1
RAW_ASCENT 799
RAW_DESCENT 200
NORM_SPACE 2
RELATIVE_WEIGHT 40
RELATIVE_SETWIDTH 50
SUPERSCRIPT_X 0
SUPERSCRIPT_Y 6
SUPERSCRIPT_SIZE 10
SUBSCRIPT_X 0
SUBSCRIPT_Y 1
SUBSCRIPT_SIZE 10
AVG_LOWERCASE_WIDTH 130
AVG_UPPERCASE_WIDTH 142
ENDPROPERTIES
CHARS 372
STARTCHAR glyph1.dup1
ENCODING 0
SWIDTH 108 0
DWIDTH 2 0
BBX 1 1 0 0
BITMAP
00
ENDCHAR
STARTCHAR uni0002
ENCODING 2
SWIDTH 108 0
DWIDTH 2 0
BBX 1 1 0 0
BITMAP
00
ENDCHAR
STARTCHAR uni0009
ENCODING 9
SWIDTH 108 0
DWIDTH 2 0
BBX 1 1 0 0
BITMAP
00
ENDCHAR
STARTCHAR uni000A
ENCODING 10
SWIDTH 108 0
DWIDTH 2 0
BBX 1 1 0 0
BITMAP
00
ENDCHAR
STARTCHAR uni000D
ENCODING 13
SWIDTH 108 0
DWIDTH 2 0
BBX 1 1 0 0
BITMAP
00
ENDCHAR
STARTCHAR space
ENCODING 32
SWIDTH 108 0
DWIDTH 2 0
BBX 1 1 0 0
BITMAP
00
ENDCHAR
STARTCHAR exclam
ENCODING 33
SWIDTH 336 0
DWIDTH 6 0
BBX 6 16 0 -1
BITMAP
145532
379964
379964
379964
379964
379964
379964
379964
379964
379964
379964
012211
188882
155551
155551
2AAAA2
ENDCHAR
STARTCHAR quotedbl
ENCODING 34
SWIDTH 538 0
DWIDTH 10 0
BBX 9 7 0 8
BITMAP
2355024550
46AA036990
46AA036990
46AA036990
46AA036990
46AA036990
1111001110
ENDCHAR
STARTCHAR numbersign
ENCODING 35
SWIDTH 1014 0
DWIDTH 18 0
BBX 18 18 0 -2
BITMAP
000000211200112200
000000A85700758A00
0000019A7300A65900
00066659A564A95765
00155956A5557A8454
00387A85888958A684
006979A7799A659992
0000559A000A955000
0000956A0037A81000
0000A85700758A0000
00019A7300A6590000
099859A796A9589900
155956A5557A845300
255A85855858A45300
5869A7688A65988200
00569A000A95500000
00956A0037A8100000
001001000011000000
ENDCHAR
STARTCHAR dollar
ENCODING 36
SWIDTH 686 0
DWIDTH 12 0
BBX 12 21 0 -3
BITMAP
000001000000
000037450000
000022010000
0018A878A930
02A59A999587
0A5A58986680
37A685666700
559976455000
559A69773000
28A596667B20
0A5A5668B5B0
02B58AAA5B65
0018AAA6A669
0000000A7579
00149996A669
0359999A5B65
458A6557B5A0
07A655557910
000479973000
000037450000
000024330000
ENDCHAR
STARTCHAR percent
ENCODING 37
SWIDTH 1504 0
DWIDTH 27 0
BBX 27 18 0 -2
BITMAP
0000022000000000000000000000
0019978A60000235500000000000
02A599A768000758A00000000000
0A595984A7400A65900000000000
37A6855A66A00A95500000000000
668A76A66AA037A9100001000000
767A91867AA0757A003A98992000
56A9597958A0A65806859995A300
1A7699A5A570A964298668595A00
0588956A5B146A9195896577B650
006A5557A20857A0A857A69A6680
00016874000A7580A95590A96690
000000000019A640A6597A5A8570
000000000046990066A5A9A5A920
0000000000856A000A5A657A6800
0000000000A7570001A755588000
00000000019A6300000489720000
0000000001232000000000000000
ENDCHAR
STARTCHAR ampersand
ENCODING 38
SWIDTH 1029 0
DWIDTH 19 0
BBX 18 15 0 0
BITMAP
000158888815334500
005A6666661A668A00
0488A666661A668A00
0A769A99991A668A00
46A85AAAAA1A668A00
55898200000A668A00
36995A99999A668A89
0A75B877777A668A78
19968666666A668A66
558A7755555A668A55
559979777759559A73
29A596666646598663
0A5A56777751A67574
01B67AAAAA704A59A5
0017AAAAAA70029AA5
ENDCHAR
STARTCHAR quotesingle
ENCODING 39
SWIDTH 257 0
DWIDTH 5 0
BBX 4 7 0 8
BITMAP
2355
46AA
46AA
46AA
46AA
46AA
1111
ENDCHAR
STARTCHAR parenleft
ENCODING 40
SWIDTH 410 0
DWIDTH 7 0
BBX 7 18 0 -2
BITMAP
00000220
0008A750
00A59A80
084A5880
19949550
46995830
55998200
55898100
55898100
55898100
55898100
55998100
46995720
19959560
094A5980
01A59A80
00199640
00001330
ENDCHAR
STARTCHAR parenright
ENCODING 41
SWIDTH 408 0
DWIDTH 7 0
BBX 7 18 0 -2
BITMAP
13100000
379A2000
4AA59300
49686A10
26589560
15995590
00975790
00975790
00975790
00975790
00975790
00975790
14995590
3658A560
4A777A10
4AA59400
268A3000
24200000
ENDCHAR
STARTCHAR asterisk
ENCODING 42
SWIDTH 664 0
DWIDTH 12 0
BBX 12 12 0 1
BITMAP
000064460000
002095580200
0298A5598910
0795C55B5960
3A5A755895A3
01994ED39910
1895AAAA5971
359865568953
065AC55CA560
018195581800
000095580000
000011110000
ENDCHAR
STARTCHAR plus
ENCODING 43
SWIDTH 601 0
DWIDTH 11 0
BBX 11 9 0 3
BITMAP
000432340000
000A767A0000
000A767A0000
3AAC767CAA10
399C767C9910
266B767B6610
144B767B4410
000A767A0000
000865680000
ENDCHAR
STARTCHAR comma
ENCODING 44
SWIDTH 252 0
DWIDTH 5 0
BBX 4 7 0 -3
BITMAP
1122
569A
569A
239A
295A
2585
2730
ENDCHAR
STARTCHAR hyphen
ENCODING 45
SWIDTH 473 0
DWIDTH 9 0
BBX 8 4 0 5
BITMAP
29999997
29999997
15555554
14444443
ENDCHAR
STARTCHAR period
ENCODING 46
SWIDTH 255 0
DWIDTH 5 0
BBX 4 4 0 0
BITMAP
1332
2776
3AA8
3AA8
ENDCHAR
STARTCHAR slash
ENCODING 47
SWIDTH 447 0
DWIDTH 8 0
BBX 8 17 0 -2
BITMAP
00005335
0000A856
00028A73
000559A0
00095690
000A8560
0028A730
00559A00
00956900
00A85600
028A7200
0659A000
09569000
0A856000
28A72000
659A0000
64470000
ENDCHAR
STARTCHAR zero
ENCODING 48
SWIDTH 843 0
DWIDTH 15 0
BBX 15 17 0 -1
BITMAP
0000001210000000
00006A878A710000
001A5799985A3000
00A4A5898595A100
065A695657894900
0A8598847A75A910
27984800056A8660
458A720000996580
6579900000A86690
5589810000A96580
46995500028A7570
19966A201A48A730
0957A59AA5A57A00
029868A8995A7400
0058696569868000
0004A65556A60000
0000048985100000
ENDCHAR
STARTCHAR one
ENCODING 49
SWIDTH 426 0
DWIDTH 8 0
BBX 7 15 0 0
BITMAP
48888870
36666650
36666650
59CBBDC0
00855990
00855990
00855990
00855990
00855990
00855990
00855990
00855990
00855990
00855990
00855990
ENDCHAR
STARTCHAR two
ENCODING 50
SWIDTH 583 0
DWIDTH 11 0
BBX 10 16 0 0
BITMAP
0012210000
5A9779A710
29AAAA85B1
1589975B58
066665A48A
06644A5699
0000097699
0000679958
00029967A1
001A76A750
00968A5900
057A75A000
1865864331
2777777772
3AAAAAAAA2
3AAAAAAAA2
ENDCHAR
STARTCHAR three
ENCODING 51
SWIDTH 612 0
DWIDTH 11 0
BBX 11 17 0 -1
BITMAP
001232000000
5A9878A81000
29A99A95B200
1679985A5A00
06656586A730
0664467A8660
001776998660
0016657B9730
001778A78800
001AAA867A10
001AA9599650
0100029A7660
0699A9599650
0AA989958A10
297666A87600
4666665A6000
157898610000
ENDCHAR
STARTCHAR four
ENCODING 52
SWIDTH 622 0
DWIDTH 11 0
BBX 11 15 0 0
BITMAP
000052463300
0001A8599100
00065A849000
000B75A83000
0056B75A0000
00B66A740000
047B65B14500
0A67B5627900
38A56A027900
4AAAAAAAAA70
377777777750
266666666640
377777779950
000000027900
000000027900
ENDCHAR
STARTCHAR five
ENCODING 53
SWIDTH 691 0
DWIDTH 12 0
BBX 12 16 0 -1
BITMAP
088888888850
066666666630
066666666630
0DDCA9999960
09A720000000
09A769995000
09A756655A30
09A7566595A1
09A767697948
07756898758A
000000085699
00149996957A
035AA99A5A57
45996668A5A0
079656558910
001589962000
ENDCHAR
STARTCHAR six
ENCODING 54
SWIDTH 781 0
DWIDTH 14 0
BBX 14 17 0 -1
BITMAP
00000022100000
000399778A8200
00785999995950
05797699757500
0A75A656675000
37A85A54540000
569A7589972000
568A8466658800
568A8566579590
568A85867A4A83
568A8599A6A757
469A65000A9558
19A5879A95A857
0A5A5A99A95892
01B5A8666A8770
0019956656A600
00002689850000
ENDCHAR
STARTCHAR seven
ENCODING 55
SWIDTH 631 0
DWIDTH 11 0
BBX 11 15 0 0
BITMAP
488888533560
366664A856A0
3666658A7570
59999859A730
000009569A00
00000A856A00
000018A75700
0000569A6400
00009569A000
0000A857A000
00019A757000
000569A64000
000856A90000
000A857A0000
0019A7580000
ENDCHAR
STARTCHAR eight
ENCODING 56
SWIDTH 808 0
DWIDTH 15 0
BBX 14 17 0 -1
BITMAP
00000233210000
0018A77779A500
02A59A99AA6780
0A5A5899976974
37A6856665A56A
568A77444A659A
569A6A887965AA
19A5A666669B5A
095A666668A5B3
08A769AAAA5A58
4699AAAAA7958A
568A82000966AA
46A9599998858A
0A7599888A6958
0588955557B5A1
005A5555556A20
000159AA984000
ENDCHAR
STARTCHAR nine
ENCODING 57
SWIDTH 782 0
DWIDTH 14 0
BBX 14 17 0 -1
BITMAP
00000122000000
0017A8789A4000
01A58AAAA67800
0A5A579866A670
37A695666A59A1
757A7644959965
757A8524599756
47A68666399757
0A5A5898399757
01B58A99599757
0007A989599757
0000011066A855
0001499A785A82
0035AA9AB69490
045996668B5A10
007A6566589100
00014899620000
ENDCHAR
STARTCHAR colon
ENCODING 58
SWIDTH 262 0
DWIDTH 5 0
BBX 4 9 0 2
BITMAP
2AA9
2887
1665
1666
0000
2AA9
1776
1665
1777
ENDCHAR
STARTCHAR semicolon
ENCODING 59
SWIDTH 261 0
DWIDTH 5 0
BBX 4 11 0 0
BITMAP
2AA9
2887
1665
1666
0000
2477
3699
3599
019A
293A
2A92
ENDCHAR
STARTCHAR less
ENCODING 60
SWIDTH 670 0
DWIDTH 12 0
BBX 12 14 0 0
BITMAP
000000000284
00000015A853
000038A56A72
016A759957A3
4A56A7599574
29957A759930
259957A61000
466A963A8200
3C5765A858A3
17A759958A62
00049957A653
0000016A7594
000000003992
000000000012
ENDCHAR
STARTCHAR equal
ENCODING 61
SWIDTH 473 0
DWIDTH 9 0
BBX 8 9 0 2
BITMAP
29999997
28888886
15555554
16666664
00000000
29999997
17777775
15555554
17777775
ENDCHAR
STARTCHAR greater
ENCODING 62
SWIDTH 670 0
DWIDTH 12 0
BBX 12 14 0 0
BITMAP
393000000000
257A61000000
17A759930000
2A759957A610
3859A56A74C5
028A66938A62
0000579958A3
0027A66A8585
2A858A66A853
16A858A56A71
366A75994000
3956A7100000
299400000000
110000000000
ENDCHAR
STARTCHAR question
ENCODING 63
SWIDTH 693 0
DWIDTH 12 0
BBX 12 16 0 0
BITMAP
000012200000
028A87799300
4959A9A95960
058689867884
00476656A65A
0003545A6699
0011113A5599
01998565A56A
019986974965
019986997790
01998589A600
019982210000
014441000000
037773000000
049994000000
049994000000
ENDCHAR
STARTCHAR at
ENCODING 64
SWIDTH 1076 0
DWIDTH 19 0
BBX 19 18 0 -2
BITMAP
00000048AAA950000000
00004B75787659600000
000886A7666699591000
0076967A767994A5A100
03895B40455119694800
0A47A23B65699085A820
199662A5A899580A7570
55AA09597995991857A0
649A0975800A97355890
649A0975800A96355890
46A8275A586A964658A0
1A8591A5886A759975A0
094A85179967689A7840
02B6989300008A66A600
005A6A58A99701441000
0004B57AAAA900000000
000018A8667700000000
00000002343200000000
ENDCHAR
STARTCHAR A
ENCODING 65
SWIDTH 936 0
DWIDTH 17 0
BBX 17 15 0 0
BITMAP
000001743560000000
000006C58A73000000
00000A38A759000000
0000288A6599100000
000085776A95600000
0000A956A957A00000
00056A94957A730000
000A659938A7590000
0028A6590A659A1000
00857A730669956000
00A857A7A7A957A000
056A959AAAA57A8300
0A65A9566667A75800
28A65934443A759A00
858A74000006599650
ENDCHAR
STARTCHAR B
ENCODING 66
SWIDTH 862 0
DWIDTH 16 0
BBX 15 15 0 0
BITMAP
2888888888730000
375666666657A100
37B56666668B5A00
37AA999999A5B560
37AA4AAAAA7957A0
37AA6400009669A0
37AA68999A9867A0
37AA677777A7A650
37AA6666666B7680
37AA665556B669A0
37AA667777B668A0
37AA6666666A85A0
37AA677777578A30
37AA68AAAA95A700
37AA68AAAAAA4000
ENDCHAR
STARTCHAR C
ENCODING 67
SWIDTH 852 0
DWIDTH 15 0
BBX 15 17 0 -1
BITMAP
0000000121000000
000029A879A71000
000795999985A400
0076875898597940
04895A6565796750
0A66A4A647A58200
28A75A0000160000
658A720000000000
7569900000000000
6579910000000000
4699560000020000
0A85986001865000
075A6859995A5810
01A5A5A98A95A590
002A499556986A00
00018955556A7000
0000016898500000
ENDCHAR
STARTCHAR D
ENCODING 68
SWIDTH 886 0
DWIDTH 16 0
BBX 16 15 0 0
BITMAP
2888888887400000
37566666656A4000
37B5666667A78500
37AA99999A868920
37AA4AAAA95A8590
37AA640001A65991
37AA640000659A63
37AA64000037A955
37AA64000046A955
37AA640000957A82
37AA6977796A57A0
37AA466665A5A660
37A57777765A5A00
37AAAAAAA966A100
3CAAAAAAAAA50000
ENDCHAR
STARTCHAR E
ENCODING 69
SWIDTH 706 0
DWIDTH 13 0
BBX 12 15 0 0
BITMAP
245538888888
37AA68666666
37AA68666666
37AA6B999999
37AA64000000
37AA64000000
37AA6B997000
37AA6A996000
37AA68554000
37AA67443000
37AA64000000
37AA66333333
37AA69777777
37AA6BAAAAA9
37AA6BAAAAA9
ENDCHAR
STARTCHAR F
ENCODING 70
SWIDTH 683 0
DWIDTH 12 0
BBX 12 15 0 0
BITMAP
245538888885
37AA68666664
37AA68666664
37AA6B999996
37AA64000000
37AA64000000
37AA66444441
37AA68666662
37AA6BAAAAA3
37AA6BAAAAA3
37AA64000000
37AA64000000
37AA64000000
37AA64000000
37AA64000000
ENDCHAR
STARTCHAR G
ENCODING 71
SWIDTH 908 0
DWIDTH 16 0
BBX 16 17 0 -1
BITMAP
0000000121000000
000029A879A71000
000795999985A400
0076875898597940
04895A6565796750
0A66A4A647A58200
28A75A0000160000
658A720000000000
7569900000065336
667A900000098559
4699660000098559
19A68A50002A8559
085A87699A8A8559
01A495A989AB8559
002A5A96669B8559
00019955566B8559
0000026898610000
ENDCHAR
STARTCHAR H
ENCODING 72
SWIDTH 901 0
DWIDTH 16 0
BBX 16 15 0 0
BITMAP
2455320000155433
37AA64000019A866
37AA64000019A866
37AA64000019A866
37AA64000019A866
37AA64000019A866
37AA6BAAAAA9A866
37AA6B9999A9A866
37AA68666669A866
37AA67444459A866
37AA64000019A866
37AA64000019A866
37AA64000019A866
37AA64000019A866
37AA64000019A866
ENDCHAR
STARTCHAR I
ENCODING 73
SWIDTH 338 0
DWIDTH 6 0
BBX 6 15 0 0
BITMAP
245532
37AA64
37AA64
37AA64
37AA64
37AA64
37AA64
37AA64
37AA64
37AA64
37AA64
37AA64
37AA64
37AA64
37AA64
ENDCHAR
STARTCHAR J
ENCODING 74
SWIDTH 434 0
DWIDTH 8 0
BBX 7 16 0 -1
BITMAP
00334550
00657990
00657990
00657990
00657990
00657990
00657990
00657990
00657990
00657990
00856990
696A57A0
58A5A660
356A5A00
35579100
69830000
ENDCHAR
STARTCHAR K
ENCODING 75
SWIDTH 815 0
DWIDTH 15 0
BBX 15 15 0 0
BITMAP
2455320006336510
37AA640037A66A00
37AA6400A56A7400
37AA64037A65A000
37AA640A56A73000
37AA6447A75A0000
37AA64A66A830000
37AA677A65A00000
37AA65A858A10000
37AA647599570000
37AA641A858A1000
37AA640759958000
37AA6401A8599100
37AA640065A95800
37AA64000A759910
ENDCHAR
STARTCHAR L
ENCODING 76
SWIDTH 604 0
DWIDTH 11 0
BBX 11 15 0 0
BITMAP
245532000000
37AA64000000
37AA64000000
37AA64000000
37AA64000000
37AA64000000
37AA64000000
37AA64000000
37AA64000000
37AA64000000
37AA64000000
37AA66333310
37AA69777720
37AA6BAAAA30
37AA6BAAAA30
ENDCHAR
STARTCHAR M
ENCODING 77
SWIDTH 920 0
DWIDTH 17 0
BBX 16 15 0 0
BITMAP
2652500000006526
3E58A10000065A8A
39995700001A8599
37958A1000759929
3779958001A85969
37A8599108499479
37A4A85829959579
37A97599748A7579
37AA1A8599587579
37AA585A84A87579
37AA64A75C697579
37AA642122097579
37AA640000097579
37AA640000097579
37AA640000097579
ENDCHAR
STARTCHAR N
ENCODING 78
SWIDTH 877 0
DWIDTH 16 0
BBX 15 15 0 0
BITMAP
2642652000434550
3E5A859000766AA0
37A75A7400766AA0
3777A67A00766AA0
379A58A580766AA0
37A4A95992766AA0
37A975A75A766AA0
37AA2A66A6856AA0
37AA668A57A46AA0
37AA649599594AA0
37AA641A85A83AA0
37AA64066A66A6A0
37AA6400A57A66A0
37AA640038958AB0
37AA6400085985E0
ENDCHAR
STARTCHAR O
ENCODING 79
SWIDTH 933 0
DWIDTH 17 0
BBX 17 17 0 -1
BITMAP
000000012100000000
000029A878A8100000
000795999985A40000
007687589859785000
04895A65658967A200
0A66A4A64695985900
28A75A000019759A00
658A72000005599730
756990000002799540
657991000003699630
46995600000957A810
0A8598600186A56A00
075A6859994A5A7500
01A5A5A98A94A59000
002A499556985A1000
00018955556A700000
000001689851000000
ENDCHAR
STARTCHAR P
ENCODING 80
SWIDTH 850 0
DWIDTH 15 0
BBX 15 15 0 0
BITMAP
2888888888610000
3756666666597000
37B5666666896800
37AA999999A59820
37AA4AAAAA5A7580
37AA640000A75690
37AA642223A85690
37AA667777599570
37AA669999767A20
37AA669999A69600
37AA6555568B5000
37AA654444200000
37AA640000000000
37AA640000000000
37AA640000000000
ENDCHAR
STARTCHAR Q
ENCODING 81
SWIDTH 937 0
DWIDTH 17 0
BBX 17 18 0 -2
BITMAP
000000012100000000
000029A878A8100000
000795999985A40000
007687589859785000
04895A65658967A200
0A66A4A64695985900
28A75A000019759A00
658A72000005599730
756990000002799540
657991000184699630
469956005A5A57A810
0A8598608396A56A00
075A6859994A5A7500
01A5A5A98A94A59000
002A499556985A1000
00018955556A848000
0000016898555A6000
000000000001920000
ENDCHAR
STARTCHAR R
ENCODING 82
SWIDTH 843 0
DWIDTH 15 0
BBX 15 15 0 0
BITMAP
2888888888610000
3756666666597000
37B5666666996700
37AA999999A59920
37AA4AAAAA5A7570
37AA640000A95690
37AA6788898A6680
37AA66666696B750
37AA6666665A5B00
37AA68AAAA75B200
37AA68AAABCB4000
37AA6400A9769000
37AA64009669A000
37AA640047AA6400
37AA64000A966900
ENDCHAR
STARTCHAR S
ENCODING 83
SWIDTH 682 0
DWIDTH 12 0
BBX 12 17 0 -1
BITMAP
000002210000
0028A778A930
03A59A999587
0A6958985770
46B775666700
668A85455000
668A79763000
37B686668A10
0A5A5668B5A0
02B58AAA5B64
0018AAA5A659
0000000A866A
00149995A658
035A999A5B64
45996568B5A0
079655558910
001589973000
ENDCHAR
STARTCHAR T
ENCODING 84
SWIDTH 591 0
DWIDTH 11 0
BBX 10 15 0 0
BITMAP
4888888888
3666666666
3666666666
499DDCBC99
000AA66800
000AA66800
000AA66800
000AA66800
000AA66800
000AA66800
000AA66800
000AA66800
000AA66800
000AA66800
000AA66800
ENDCHAR
STARTCHAR U
ENCODING 85
SWIDTH 905 0
DWIDTH 16 0
BBX 16 16 0 -1
BITMAP
2355410000055334
45997200000AA668
45997200000AA668
45997200000AA668
45997200000AA668
45997200000AA668
45997200000AA668
45997200000AA668
46997300000AA667
27A956000038A856
0A957A4002B57A73
08597679985A76A0
01A695A99A778830
003A5A8667A68600
0002A855557A3000
0000027997300000
ENDCHAR
STARTCHAR V
ENCODING 86
SWIDTH 940 0
DWIDTH 17 0
BBX 17 15 0 0
BITMAP
534642000002365340
47A85800000857A730
0A858A00001A956A00
0758A6400065995600
019A66A000A759A100
00966A91028A759000
0046A8570857A73000
000A858A0A957A0000
000758A676A9560000
00029A65A659910000
0000A6678A65900000
000056A858A7300000
00000A3A957A000000
00000876A957000000
000002E65991000000
ENDCHAR
STARTCHAR W
ENCODING 87
SWIDTH 1161 0
DWIDTH 21 0
BBX 21 15 0 0
BITMAP
5335500055336001454340
559A63037A95E00569A640
18A7570757A88409569900
0A856A0A658C480A856A00
09569919965C7A28A85700
056996869966A8858A7300
019A65956A9A95E659A000
00A757A757AA55B9569000
0085779A75D75C7A856000
00469569A6C58C58A82000
000A99569947AA658A0000
000A2A856A0A9A96590000
000758A7570A6699650000
0003D58A7305C57A910000
0000D659A001D757A00000
ENDCHAR
STARTCHAR X
ENCODING 88
SWIDTH 876 0
DWIDTH 16 0
BBX 16 15 0 0
BITMAP
5265260003463460
2A8498300A57A570
075A75A066A75A00
00A67A56A8598300
0038A58A58958000
00085A67A57A1000
0001A4A75A740000
0000495985A00000
000038A58A570000
0000A66A67892000
00075A75A785A000
00299599766A6500
00A58A5847A57A10
056A66A009599590
1A75A74001A85A84
ENDCHAR
STARTCHAR Y
ENCODING 89
SWIDTH 789 0
DWIDTH 14 0
BBX 14 15 0 0
BITMAP
53355000054345
37996400189866
09757900766990
04699641997560
00975797579910
00469949976700
00098696798100
00056898668000
00009668981000
00006B86680000
00002899550000
00002899550000
00002899550000
00002899550000
00002899550000
ENDCHAR
STARTCHAR Z
ENCODING 90
SWIDTH 854 0
DWIDTH 15 0
BBX 15 15 0 0
BITMAP
3888888888888850
2666666666644B40
2666666665579670
3999999994A69740
3AAAAA92795A5A40
0000002A69779670
00000695A5A59600
0002A697796A2000
00695A5A59600000
1A687796A2000000
25A5A69647777740
37796A3366666640
1A69716777777740
26A38AAAAAAAAA60
4EAAAAAAAAAAAA60
ENDCHAR
STARTCHAR bracketleft
ENCODING 91
SWIDTH 320 0
DWIDTH 6 0
BBX 6 18 0 -2
BITMAP
033331
3A7772
37B992
379692
379900
379900
379900
379900
379900
379900
379900
379900
379900
379900
3797A2
37C992
3A5551
144441
ENDCHAR
STARTCHAR backslash
ENCODING 92
SWIDTH 448 0
DWIDTH 8 0
BBX 8 17 0 -2
BITMAP
53360000
559A0000
28A73000
0A857000
0956A000
0559A000
028A7300
00A85700
00956A00
00559A00
0028A730
000A8570
000956A0
000559A0
00028A73
0000A857
00007447
ENDCHAR
STARTCHAR bracketright
ENCODING 93
SWIDTH 319 0
DWIDTH 6 0
BBX 5 18 0 -2
BITMAP
133330
3777C0
5999A0
594AA0
036AA0
036AA0
036AA0
036AA0
036AA0
036AA0
036AA0
036AA0
036AA0
036AA0
5A5AA0
599AA0
3555B0
244440
ENDCHAR
STARTCHAR asciicircum
ENCODING 94
SWIDTH 475 0
DWIDTH 9 0
BBX 8 8 0 5
BITMAP
00083400
003B6A00
0092A820
01A87580
066929A0
0A640A65
28A0056A
21300033
ENDCHAR
STARTCHAR underscore
ENCODING 95
SWIDTH 511 0
DWIDTH 9 0
BBX 9 4 0 -4
BITMAP
2AAAAAAA40
2AAAAAAA40
1777777730
0333333310
ENDCHAR
STARTCHAR grave
ENCODING 96
SWIDTH 472 0
DWIDTH 9 0
BBX 8 5 0 12
BITMAP
03A50000
2A66A500
005A76A5
00004A62
00000010
ENDCHAR
STARTCHAR a
ENCODING 97
SWIDTH 832 0
DWIDTH 15 0
BBX 15 14 0 -1
BITMAP
00017AAAA9400000
003B57AA967A1000
02A5A56756A5B000
0A5979566B5A6600
28A66997A6957A00
658A65000957A820
756990000469A730
757A9100037AA640
46994910157AA640
0B75A589857AA640
058867A9967AA640
00696A98967AA640
0004A855667AA640
0000024530000000
ENDCHAR
STARTCHAR b
ENCODING 98
SWIDTH 720 0
DWIDTH 13 0
BBX 13 13 0 0
BITMAP
2A999999971000
3756666651A300
37B55555594B00
37AA777797A730
37AA00001A9540
37AA599995A920
37AA6999AD0B00
37AA4777758A10
37AA12223AA540
37AA233359A640
37AA3666668A10
37AA6999958700
37AA6999AA5000
ENDCHAR
STARTCHAR c
ENCODING 99
SWIDTH 736 0
DWIDTH 13 0
BBX 13 15 0 -1
BITMAP
00000034300000
000299767A8100
004A59A9A95A20
02A6959A959560
0A588757587400
28A66A63781000
658A7400000000
75699000000000
75798100000000
46A84A10270000
0A75A49A948000
057A5998A86820
00868A656A7860
0006A65556A400
00001589840000
ENDCHAR
STARTCHAR d
ENCODING 100
SWIDTH 833 0
DWIDTH 15 0
BBX 15 13 0 0
BITMAP
2A99999997200000
3756666655880000
37B5555568A5A000
37AA88889A5A5700
37AA5A99A6A58A00
37AA64000959A640
37AA6400037A9550
37AA6400065AA650
37AA69778976A910
37AA466669895A00
37A5777765A6A200
37AAAAAAA85B3000
3CAAAAAAAA710000
ENDCHAR
STARTCHAR e
ENCODING 101
SWIDTH 666 0
DWIDTH 12 0
BBX 12 13 0 0
BITMAP
24664A999993
37AA68666662
37AA68555552
37AA69888882
37AA64000000
37AA6BAAAA90
37AA6BAAAA90
37AA68666660
37AA67444440
37AA66333331
37AA69777772
37AA6BAAAAA3
37AA6BAAAAA3
ENDCHAR
STARTCHAR f
ENCODING 102
SWIDTH 625 0
DWIDTH 11 0
BBX 11 13 0 0
BITMAP
24664A999960
37AA68666640
37AA68555540
37AA69888850
37AA64000000
37AA6A888820
37AA68666610
37AA68666610
37AA6B999920
37AA64000000
37AA64000000
37AA64000000
37AA64000000
ENDCHAR
STARTCHAR g
ENCODING 103
SWIDTH 827 0
DWIDTH 15 0
BBX 15 15 0 -1
BITMAP
0000003430000000
000299767A810000
004A59A9A95A2000
02A6959A95956000
0A58875758740000
28A66A6378100000
658A740000000000
7569900002244310
757981000469A720
46A84A100869A720
0A75A4999969A720
057A5998AB69A720
00868A656B69A720
0006A6555869A720
0000158984000000
ENDCHAR
STARTCHAR h
ENCODING 104
SWIDTH 830 0
DWIDTH 15 0
BBX 15 13 0 0
BITMAP
2466420003466510
37AA640005599820
37AA640005599820
37AA640005599820
37AA664447599820
37AA686669599820
37AA6BAAAB599820
37AA6BAAAB599820
37AA640005599820
37AA640005599820
37AA640005599820
37AA640005599820
37AA640005599820
ENDCHAR
STARTCHAR i
ENCODING 105
SWIDTH 337 0
DWIDTH 6 0
BBX 6 13 0 0
BITMAP
246642
37AA64
37AA64
37AA64
37AA64
37AA64
37AA64
37AA64
37AA64
37AA64
37AA64
37AA64
37AA64
ENDCHAR
STARTCHAR j
ENCODING 106
SWIDTH 393 0
DWIDTH 7 0
BBX 7 15 0 -2
BITMAP
01566430
028A9640
028A9640
028A9640
028A9640
028A9640
028A9640
028A9640
028A9640
047A9640
5A66A820
38976A00
35979300
575A4000
6A710000
ENDCHAR
STARTCHAR k
ENCODING 107
SWIDTH 801 0
DWIDTH 14 0
BBX 14 13 0 0
BITMAP
24664200066357
37AA6400759957
37AA64019958A0
37AA640858A650
37AA6428A56A00
37AA64957A7400
37AA618A65A000
37AA63A8599100
37AA6466A85800
37AA640A65A820
37AA64047A7590
37AA6400A56A73
37AA640038A66A
ENDCHAR
STARTCHAR l
ENCODING 108
SWIDTH 583 0
DWIDTH 11 0
BBX 10 13 0 0
BITMAP
2466420000
37AA640000
37AA640000
37AA640000
37AA640000
37AA640000
37AA640000
37AA640000
37AA640000
37AA663332
37AA697776
37AA6BAAA9
37AA6BAAA9
ENDCHAR
STARTCHAR m
ENCODING 109
SWIDTH 1167 0
DWIDTH 21 0
BBX 21 14 0 0
BITMAP
0000034410001443000000
0007A766AA5A9767A70000
01A58AAAA5B8AAAA85A100
095B59AA788C7AA95B5800
199595766996A675A59A10
36995723A956D32859A730
45997200A767A0037AA640
45997200A767A0037AA640
45997200A767A0037AA640
45997200A767A0037AA640
45997200A767A0037AA640
45997200A767A0037AA640
45997200A767A0037AA640
45997200A767A0037AA640
ENDCHAR
STARTCHAR n
ENCODING 110
SWIDTH 787 0
DWIDTH 14 0
BBX 14 13 0 0
BITMAP
28537520006643
3E5A85A0009855
37B75A74009855
3786A66A009855
379A57A6609855
37A48A58A19855
37A89599589855
37AA1A85A96855
37AA075A75A855
37AA00A66B7955
37AA0057A66A55
37AA000A58A5B5
37AA00039958A5
ENDCHAR
STARTCHAR o
ENCODING 111
SWIDTH 833 0
DWIDTH 15 0
BBX 15 15 0 -1
BITMAP
0000003430000000
000299767A810000
004A59A9A95A2000
02A6959995A5A100
0A58875758795900
28A66A6379759910
658A74000659A640
7569900001898660
75798100037A9650
46A84A102A57A820
0A75A49994A66A00
057A599898598300
00868A656A776000
0006A65556A40000
0000158984000000
ENDCHAR
STARTCHAR p
ENCODING 112
SWIDTH 781 0
DWIDTH 14 0
BBX 14 13 0 0
BITMAP
2A999999982000
37566666658800
37B5555557A580
37AA88888A5A92
37AA5A99A5A956
37AA6533499767
37AA6566668A64
37AA66999686B1
37AA6699AA5A50
37AA656679A400
37AA6533310000
37AA6400000000
37AA6400000000
ENDCHAR
STARTCHAR q
ENCODING 113
SWIDTH 788 0
DWIDTH 14 0
BBX 14 15 0 -2
BITMAP
000059999999A3
004A5566666655
03959555555A55
0A57898888B855
46A75999A79855
76799100189855
75699000189855
56995A88689855
1A85A666489855
07697566489855
00885899689855
000399AA789855
00000000189855
00000000189855
00000000179755
ENDCHAR
STARTCHAR r
ENCODING 114
SWIDTH 831 0
DWIDTH 15 0
BBX 15 13 0 0
BITMAP
2A99999999830000
3756666666588000
37B55555557A6700
37AA888888A59910
37AA5A999A59A650
37AA6655568A9650
37AA66555577A730
37AA679998595B00
37AA68999AA5B300
37AA678888AD2000
37AA642689A82000
37AA6401AA768000
37AA64009669A000
ENDCHAR
STARTCHAR s
ENCODING 115
SWIDTH 683 0
DWIDTH 12 0
BBX 12 14 0 -1
BITMAP
0028AAAAA610
04A489A965A5
1A7956665972
659974358700
758A10000000
47A59AAAA500
0A58AAA867A0
018A86666A66
00003445A659
00450001A66A
04769A995B57
4859A99A85A0
03997657A810
000034430000
ENDCHAR
STARTCHAR t
ENCODING 116
SWIDTH 588 0
DWIDTH 11 0
BBX 10 13 0 0
BITMAP
4999999999
3666666666
3555555555
4889988988
0009965700
0009965700
0009965700
0009965700
0009965700
0009965700
0009965700
0009965700
0009965700
ENDCHAR
STARTCHAR u
ENCODING 117
SWIDTH 795 0
DWIDTH 14 0
BBX 14 14 0 -1
BITMAP
34665200066445
469A7200099558
469A7200099558
469A7200099558
469A7200099558
469A7200099558
469A7200099558
46AA730009A658
28A8590066A856
0A75B599695A82
066A5AA9A5A590
009599667A5B10
00079555589100
00001699720000
ENDCHAR
STARTCHAR v
ENCODING 118
SWIDTH 855 0
DWIDTH 15 0
BBX 15 13 0 0
BITMAP
5357520000743660
37A75800028A6590
0A759A000858A740
0759A6500A857A00
019A56A056A95700
00956A82A66A9100
0047A8579A659000
000A758858A64000
0007596A858A0000
00019A56A8570000
000093966A910000
0000489A66A00000
00000D58A6400000
ENDCHAR
STARTCHAR w
ENCODING 119
SWIDTH 1129 0
DWIDTH 20 0
BBX 20 14 0 -1
BITMAP
34665201665440066446
469A72018A8650099558
469A72018A8650099558
469A72018A8650099558
469A72018A8650099558
469A72018A8650099558
469A72018A8650099558
469A72018A8650099558
369966157A9691399658
19A5868686A978768A65
095A59AA6A6B9AA786A1
01A5AA9AA6C9A9AA6940
00199666AA8A6668A300
00001454100145520000
ENDCHAR
STARTCHAR x
ENCODING 120
SWIDTH 790 0
DWIDTH 14 0
BBX 14 13 0 0
BITMAP
43734710735626
1B67A5857A4892
047A495B66A570
0094A695A75B00
001A768A498300
00066B57A49000
000095B66B1000
0003994A776000
000A5894A5A100
0066B57A5A4900
02A85A6794A740
0A4984A75A66B1
57A58A21B67A58
ENDCHAR
STARTCHAR y
ENCODING 121
SWIDTH 733 0
DWIDTH 13 0
BBX 13 13 0 0
BITMAP
54466000644560
27986601897660
09669917669900
027A7579975700
00856975799100
0027A499767000
00085967981000
00028986680000
00009689810000
00007569900000
00007569900000
00007569900000
00007569900000
ENDCHAR
STARTCHAR z
ENCODING 122
SWIDTH 714 0
DWIDTH 13 0
BBX 13 13 0 0
BITMAP
29999986374320
1666664A84A730
155555A4994800
2888897B489100
00001B76B56000
000094A75A0000
00048A4A830000
000B57A4800000
0075B67A100000
02A85B66333300
0A4994A4777710
57A5895AAAAA20
466B589AAAAA20
ENDCHAR
STARTCHAR braceleft
ENCODING 123
SWIDTH 396 0
DWIDTH 7 0
BBX 7 20 0 -4
BITMAP
00001320
0008A740
00959A60
028A5960
0558A100
06579000
06579000
06579000
0557A000
5A939000
595A1000
35957000
2956A000
06579000
06579000
0657A000
046A9640
01A77540
00595750
00039A60
ENDCHAR
STARTCHAR bar
ENCODING 124
SWIDTH 266 0
DWIDTH 5 0
BBX 4 17 0 -2
BITMAP
1455
3799
3799
3799
3799
3799
3799
3799
3799
3799
3799
3799
3799
3799
3799
3799
2688
ENDCHAR
STARTCHAR braceright
ENCODING 125
SWIDTH 396 0
DWIDTH 7 0
BBX 7 20 0 -4
BITMAP
23100000
37991000
5A95A000
595A6400
00B65800
00955800
00955800
00955800
00857A60
00389740
00388640
00856950
00955800
00955800
00955800
00955800
36A85700
35689200
48587000
59A40000
ENDCHAR
STARTCHAR asciitilde
ENCODING 126
SWIDTH 665 0
DWIDTH 12 0
BBX 12 4 0 10
BITMAP
002444441222
097666662A55
3789999994A1
4582AAAAAA40
ENDCHAR
STARTCHAR uni00A0
ENCODING 160
SWIDTH 108 0
DWIDTH 2 0
BBX 1 1 0 0
BITMAP
00
ENDCHAR
STARTCHAR exclamdown
ENCODING 161
SWIDTH 336 0
DWIDTH 6 0
BBX 6 16 0 -1
BITMAP
145532
379964
379964
379964
379964
379964
379964
379964
379964
379964
379964
012211
188882
155551
155551
2AAAA2
ENDCHAR
STARTCHAR cent
ENCODING 162
SWIDTH 708 0
DWIDTH 13 0
BBX 13 19 0 -2
BITMAP
00000111100000
00000556300000
00000445300000
00006A99A60000
003A569965A300
02A5B5555A6920
0A597965987200
28A67999952000
658A7400210000
767A9000000000
658A7400110000
28A76A78A42000
0A599855796200
02A6A577597820
004A589985A500
00018A99A81000
00000435300000
00000556300000
00000333200000
ENDCHAR
STARTCHAR sterling
ENCODING 163
SWIDTH 689 0
DWIDTH 12 0
BBX 12 16 0 0
BITMAP
000002220000
0017A8789940
01A59A999679
095A58996690
19A595665800
36A957446000
459972000000
459976888820
459975555510
459975555510
459977999920
459972000000
459975333310
459978777720
45997AAAAA20
45997AAAAA20
ENDCHAR
STARTCHAR currency
ENCODING 164
SWIDTH 715 0
DWIDTH 13 0
BBX 13 15 0 -1
BITMAP
00320000032000
055A10001A6300
57A47564859830
095A9555A96700
0097898A788000
00A7400066A000
037900000A9100
045900000A7200
027A00000A9100
00A6600085A000
02986A9A5A8100
0A58A868A85A00
55A6523275A530
035900000A5200
00110000011000
ENDCHAR
STARTCHAR yen
ENCODING 165
SWIDTH 796 0
DWIDTH 14 0
BBX 14 15 0 0
BITMAP
43455000053355
28986500199767
09668A00767991
03799650997680
009768A6689810
00379949866800
000975968A8200
00046898669000
0000A568982000
00005C86790000
006759A8687710
005649A8686610
006759A8687720
000019A8660000
000019A8660000
ENDCHAR
STARTCHAR brokenbar
ENCODING 166
SWIDTH 263 0
DWIDTH 5 0
BBX 4 17 0 -2
BITMAP
2455
3699
3699
3699
3699
3699
3699
1344
0000
0011
3699
3699
3699
3699
3699
3699
3699
ENDCHAR
STARTCHAR section
ENCODING 167
SWIDTH 108 0
DWIDTH 2 0
BBX 1 1 0 0
BITMAP
00
ENDCHAR
STARTCHAR dieresis
ENCODING 168
SWIDTH 556 0
DWIDTH 10 0
BBX 10 3 0 13
BITMAP
1122003211
459900A964
3477007643
ENDCHAR
STARTCHAR copyright
ENCODING 169
SWIDTH 869 0
DWIDTH 16 0
BBX 16 16 0 0
BITMAP
0000001220000000
00005CDBCDA20000
001BA300005D7000
00B7017AA711C600
07A04D8448D31D20
0E22E30000440790
4B097000000001E0
690C3000000000E1
690D3000000000E1
4B0A6000000001E0
1E13D100002206A0
09807D5116D50D30
01D503ADD920A900
002D8100002B9000
00018DA89CC50000
0000003542000000
ENDCHAR
STARTCHAR ordfeminine
ENCODING 170
SWIDTH 833 0
DWIDTH 15 0
BBX 15 14 0 -1
BITMAP
00006AAAAA500000
002B67AA966B2000
01B5B66766A5B100
095A69566B5A5800
1A95889797858A00
469956000759A730
6589810002799550
558A720001898550
28975A1013898550
0B66A58984898550
039877A995898550
004A699895898550
0003A95565898550
0000014530000000
ENDCHAR
STARTCHAR guillemotleft
ENCODING 171
SWIDTH 911 0
DWIDTH 16 0
BBX 16 9 0 2
BITMAP
0000039600000387
0016A7550016A756
29957A7319956A73
259957A5159957A5
375A971037599710
3C6665963C667597
16A7599316A75994
0003995400039954
0000016600000167
ENDCHAR
STARTCHAR logicalnot
ENCODING 172
SWIDTH 718 0
DWIDTH 13 0
BBX 13 7 0 3
BITMAP
28888888855410
16666666699720
26666666699720
2AAAAAAAA99720
00000000099720
00000000099720
00000000022100
ENDCHAR
STARTCHAR registered
ENCODING 174
SWIDTH 869 0
DWIDTH 16 0
BBX 16 16 0 0
BITMAP
0000001220000000
00005CDBCDA20000
001BA300005D7000
00B700000001C600
07A01DDDDB301D20
0E201F1115D10790
4B001F0000C301E0
69001F1115E100E1
69001FDDEC3000E1
4B001F007A0001E0
1E101F001E2006A0
09801F0008900D30
01D503000130A900
002D8100002B9000
00018DA89CC50000
0000003542000000
ENDCHAR
STARTCHAR degree
ENCODING 176
SWIDTH 330 0
DWIDTH 6 0
BBX 6 5 0 14
BITMAP
027720
197791
583385
388883
078860
ENDCHAR
STARTCHAR plusminus
ENCODING 177
SWIDTH 598 0
DWIDTH 11 0
BBX 11 12 0 0
BITMAP
000432340000
000975690000
000975690000
3AAC756CAA10
399C756C9910
266B756B6610
244B756B4410
000975690000
000864580000
068888888500
046666666400
046666666400
ENDCHAR
STARTCHAR uni00B2
ENCODING 178
SWIDTH 435 0
DWIDTH 8 0
BBX 8 12 0 3
BITMAP
03687500
166666A1
08766B65
00000B83
000076A0
00038A10
001A8400
00968000
066A0000
17631110
49999970
49999980
ENDCHAR
STARTCHAR uni00B3
ENCODING 179
SWIDTH 515 0
DWIDTH 9 0
BBX 9 13 0 2
BITMAP
1578730000
366667A100
29767A4900
099AA5A810
0000089630
00599A8710
0059866900
003555A560
00355A5690
07877B6690
066667A650
1666658800
279AA93000
ENDCHAR
STARTCHAR acute
ENCODING 180
SWIDTH 472 0
DWIDTH 9 0
BBX 8 5 0 12
BITMAP
00002880
00299597
19959810
03A81000
00100000
ENDCHAR
STARTCHAR uni00B5
ENCODING 181
SWIDTH 802 0
DWIDTH 14 0
BBX 14 15 0 -2
BITMAP
25664300064446
27A964000A767A
27A964000A767A
27A964000A767A
27A964000A767A
27A964000A767A
27A964000A767A
27A964000A766A
27A9640048A659
27A96899877A64
27A96899A795A0
27A966667A5A20
27A9666557A200
27A96799830000
27995400000000
ENDCHAR
STARTCHAR paragraph
ENCODING 182
SWIDTH 676 0
DWIDTH 12 0
BBX 12 15 0 -2
BITMAP
0002799999A3
008856666655
076A85555A55
1995A888B855
56995AA79855
668985489855
47A766789855
0B6869A89855
04A5AAA89855
003A97789855
000013489855
000000189855
000000189855
000000189855
0000001CA7B5
ENDCHAR
STARTCHAR periodcentered
ENCODING 183
SWIDTH 260 0
DWIDTH 5 0
BBX 4 4 0 7
BITMAP
0222
2887
2999
2998
ENDCHAR
STARTCHAR cedilla
ENCODING 184
SWIDTH 321 0
DWIDTH 6 0
BBX 5 6 0 -7
BITMAP
015AA0
0A55B0
28A650
27A220
0A4770
039A90
ENDCHAR
STARTCHAR uni00B9
ENCODING 185
SWIDTH 359 0
DWIDTH 6 0
BBX 6 11 0 4
BITMAP
488886
366664
25A99A
00866A
00866A
00866A
00866A
00866A
00866A
00866A
004335
ENDCHAR
STARTCHAR ordmasculine
ENCODING 186
SWIDTH 835 0
DWIDTH 15 0
BBX 15 15 0 -1
BITMAP
0000003430000000
00018A767A810000
003A59A9A95A3000
01A695999596A200
0959775757885900
199579636A66A820
46996500046A9560
6579910000997670
55897300028A8660
28A74A101A48A730
0A66A49994A57A00
04895898995A7500
00777A656A777000
0005A65556A50000
0000058985100000
ENDCHAR
STARTCHAR guillemotright
ENCODING 187
SWIDTH 912 0
DWIDTH 16 0
BBX 16 9 0 2
BITMAP
2A5000002A500000
266A8200265A8300
15A958A4159958A5
29957A6319957A64
0048A7560048A757
2A7584A82A7584A8
17A75A9317A75993
258A6100257A6100
3830000028300000
ENDCHAR
STARTCHAR onequarter
ENCODING 188
SWIDTH 1236 0
DWIDTH 22 0
BBX 22 17 0 -2
BITMAP
5888850000553300000000
36666300028A8200000000
35B999000659A000000000
0096690009569000744800
009669000A8560028A5700
0096690028A8200958A100
00966900659A0029958000
00966900956900859A1230
00966900A85601A94909A0
009669028A820448631771
0053350659A00588888887
00000009569005AAAAAAA8
0000000A85600488888887
00000028A8200111112771
000000659A000000000990
0000009569000000000000
0000007545000000000000
ENDCHAR
STARTCHAR onehalf
ENCODING 189
SWIDTH 1154 0
DWIDTH 21 0
BBX 21 17 0 -2
BITMAP
5888850000553300000000
36666300028A8200000000
35B999000659A000000000
0096690009569024652000
009669000A856286668900
0096690028A82099889830
00966900659A000000A830
0096690095690000076A00
00966900A856000039A100
009669028A820001A84000
0053350659A00009680000
0000000956900066A00000
0000000A85600177200000
00000028A8200599999700
000000659A000599999700
0000009569000000000000
0000007545000000000000
ENDCHAR
STARTCHAR threequarters
ENCODING 190
SWIDTH 1345 0
DWIDTH 24 0
BBX 24 17 0 -2
BITMAP
257873000000434500000000
466667A10000956900000000
39667A490000A85600000000
099AA5A910028A8200844700
000008A7300659A0038A5600
00699A88100956900A57A000
00598669000A856029A57000
003555A56028A820958A1220
00355A5690659A0199481890
07877B659095690547632671
066667A650A9560588888887
16666588028A8206AAAAAAA8
279AA8300659A00588888887
000000000956900111112671
000000000A95600000001890
0000000028A8200000000000
000000004467000000000000
ENDCHAR
STARTCHAR questiondown
ENCODING 191
SWIDTH 693 0
DWIDTH 12 0
BBX 12 16 0 0
BITMAP
000012200000
028A87799300
4959A9A95960
058689867884
00476656A65A
0003545A6699
0011113A5599
01998565A56A
019986974965
019986997790
01998589A600
019982210000
014441000000
037773000000
049994000000
049994000000
ENDCHAR
STARTCHAR Agrave
ENCODING 192
SWIDTH 936 0
DWIDTH 17 0
BBX 17 20 0 0
BITMAP
0002A5000000000000
002A76A50000000000
00004A76A500000000
0000004A6200000000
000000001000000000
000001743560000000
000006C58A73000000
00000A38A759000000
0000288A6599100000
000085776A95600000
0000A956A957A00000
00056A94957A730000
000A659938A7590000
0028A6590A659A1000
00857A730669956000
00A857A7A7A957A000
056A959AAAA57A8300
0A65A9566667A75800
28A65934443A759A00
858A74000006599650
ENDCHAR
STARTCHAR Aacute
ENCODING 193
SWIDTH 936 0
DWIDTH 17 0
BBX 17 20 0 0
BITMAP
000000000006A10000
0000000016A58A1000
00000007A58A300000
000000028930000000
000000001000000000
000001743560000000
000006C58A73000000
00000A38A759000000
0000288A6599100000
000085776A95600000
0000A956A957A00000
00056A94957A730000
000A659938A7590000
0028A6590A659A1000
00857A730669956000
00A857A7A7A957A000
056A959AAAA57A8300
0A65A9566667A75800
28A65934443A759A00
858A74000006599650
ENDCHAR
STARTCHAR Acircumflex
ENCODING 194
SWIDTH 936 0
DWIDTH 17 0
BBX 17 21 0 0
BITMAP
0000000A4800000000
000000299910000000
000000849560000000
000000A856A0000000
000001340440000000
000000000000000000
000001743560000000
000006C58A73000000
00000A38A759000000
0000288A6599100000
000085776A95600000
0000A956A957A00000
00056A94957A730000
000A659938A7590000
0028A6590A659A1000
00857A730669956000
00A857A7A7A957A000
056A959AAAA57A8300
0A65A9566667A75800
28A65934443A759A00
858A74000006599650
ENDCHAR
STARTCHAR Atilde
ENCODING 195
SWIDTH 936 0
DWIDTH 17 0
BBX 17 20 0 0
BITMAP
000014444430230000
0004A66666456A0000
000A4A999997570000
0008808AAAA9800000
000000000000000000
000001743560000000
000006C58A73000000
00000A38A759000000
0000288A6599100000
000085776A95600000
0000A956A957A00000
00056A94957A730000
000A659938A7590000
0028A6590A659A1000
00857A730669956000
00A857A7A7A957A000
056A959AAAA57A8300
0A65A9566667A75800
28A65934443A759A00
858A74000006599650
ENDCHAR
STARTCHAR Adieresis
ENCODING 196
SWIDTH 936 0
DWIDTH 17 0
BBX 17 19 0 0
BITMAP
000022110212300000
000099540767A00000
000076430545700000
000000000000000000
000001743560000000
000006C58A73000000
00000A38A759000000
0000288A6599100000
000085776A95600000
0000A956A957A00000
00056A94957A730000
000A659938A7590000
0028A6590A659A1000
00857A730669956000
00A857A7A7A957A000
056A959AAAA57A8300
0A65A9566667A75800
28A65934443A759A00
858A74000006599650
ENDCHAR
STARTCHAR Aring
ENCODING 197
SWIDTH 936 0
DWIDTH 17 0
BBX 17 20 0 0
BITMAP
000000067500000000
000000777760000000
000000880880000000
000000887780000000
000000388820000000
000001743560000000
000006C58A73000000
00000A38A759000000
0000288A6599100000
000085776A95600000
0000A956A957A00000
00056A94957A730000
000A659938A7590000
0028A6590A659A1000
00857A730669956000
00A857A7A7A957A000
056A959AAAA57A8300
0A65A9566667A75800
28A65934443A759A00
858A74000006599650
ENDCHAR
STARTCHAR AE
ENCODING 198
SWIDTH 1198 0
DWIDTH 22 0
BBX 21 15 0 0
BITMAP
0000007435688888888880
000005C58A686666666650
00000A28A65C6666666650
0000288A659AA999999980
000085776A956000000000
0000A956A957A000000000
00056A94857A7B99999700
000A659938A75C99999700
0028A6590A659A55555400
00858A7405599684444400
00A857A7A7A95790000000
056A959AAAA57A84333320
0A6699566667A76C777760
29A65934443A659BAAAA90
858A640000065997AAAA90
ENDCHAR
STARTCHAR Ccedilla
ENCODING 199
SWIDTH 852 0
DWIDTH 15 0
BBX 15 22 0 -6
BITMAP
0000000121000000
000029A879A71000
000795999985A400
0076875898597940
04895A6565796750
0A66A4A647A58200
28A75A0000160000
658A720000000000
7569900000000000
6579910000000000
4699560000020000
0A85986001865000
075A6859995A5810
01A5A5A98A95A590
002A499556986A00
00018955666A7000
0000019FFD500000
0000058575000000
0000095962000000
0000096621000000
0000085673000000
0000007AA3000000
ENDCHAR
STARTCHAR Egrave
ENCODING 200
SWIDTH 706 0
DWIDTH 13 0
BBX 12 20 0 0
BITMAP
03A500000000
2A66A5000000
004A76A50000
00004A620000
000000100000
245538888888
37AA68666666
37AA68666666
37AA6B999999
37AA64000000
37AA64000000
37AA6B997000
37AA6A996000
37AA68554000
37AA67443000
37AA64000000
37AA66333333
37AA69777777
37AA6BAAAAA9
37AA6BAAAAA9
ENDCHAR
STARTCHAR Eacute
ENCODING 201
SWIDTH 706 0
DWIDTH 13 0
BBX 13 20 0 0
BITMAP
0000000006A100
00000017A58A10
000007A58A3000
00000289300000
00000010000000
24553888888800
37AA6866666600
37AA6866666600
37AA6B99999900
37AA6400000000
37AA6400000000
37AA6B99700000
37AA6A99600000
37AA6855400000
37AA6744300000
37AA6400000000
37AA6633333300
37AA6977777700
37AA6BAAAAA900
37AA6BAAAAA900
ENDCHAR
STARTCHAR Ecircumflex
ENCODING 202
SWIDTH 706 0
DWIDTH 13 0
BBX 12 21 0 0
BITMAP
00000A470000
0000399A0000
000083A65000
0000A956A000
000234044000
000000000000
245538888888
37AA68666666
37AA68666666
37AA6B999999
37AA64000000
37AA64000000
37AA6B997000
37AA6A996000
37AA68554000
37AA67443000
37AA64000000
37AA66333333
37AA69777777
37AA6BAAAAA9
37AA6BAAAAA9
ENDCHAR
STARTCHAR Edieresis
ENCODING 203
SWIDTH 706 0
DWIDTH 13 0
BBX 12 19 0 0
BITMAP
002211021230
0099540866A0
007743054470
000000000000
245538888888
37AA68666666
37AA68666666
37AA6B999999
37AA64000000
37AA64000000
37AA6B997000
37AA6A996000
37AA68554000
37AA67443000
37AA64000000
37AA66333333
37AA69777777
37AA6BAAAAA9
37AA6BAAAAA9
ENDCHAR
STARTCHAR Igrave
ENCODING 204
SWIDTH 338 0
DWIDTH 6 0
BBX 9 20 -3 0
BITMAP
0692000000
6A58930000
017A589200
00017A4100
0000000000
0002455320
00037AA640
00037AA640
00037AA640
00037AA640
00037AA640
00037AA640
00037AA640
00037AA640
00037AA640
00037AA640
00037AA640
00037AA640
00037AA640
00037AA640
ENDCHAR
STARTCHAR Iacute
ENCODING 205
SWIDTH 338 0
DWIDTH 6 0
BBX 9 20 0 0
BITMAP
0000029700
0002995A70
02985A8100
013A710000
0001000000
2455320000
37AA640000
37AA640000
37AA640000
37AA640000
37AA640000
37AA640000
37AA640000
37AA640000
37AA640000
37AA640000
37AA640000
37AA640000
37AA640000
37AA640000
ENDCHAR
STARTCHAR Icircumflex
ENCODING 206
SWIDTH 338 0
DWIDTH 6 0
BBX 6 21 0 0
BITMAP
02B630
089590
0A3991
569956
423224
000000
245532
37AA64
37AA64
37AA64
37AA64
37AA64
37AA64
37AA64
37AA64
37AA64
37AA64
37AA64
37AA64
37AA64
37AA64
ENDCHAR
STARTCHAR Idieresis
ENCODING 207
SWIDTH 338 0
DWIDTH 6 0
BBX 10 19 -2 0
BITMAP
1122003211
469900A965
3477007643
0000000000
0024553200
0037AA6400
0037AA6400
0037AA6400
0037AA6400
0037AA6400
0037AA6400
0037AA6400
0037AA6400
0037AA6400
0037AA6400
0037AA6400
0037AA6400
0037AA6400
0037AA6400
ENDCHAR
STARTCHAR Eth
ENCODING 208
SWIDTH 905 0
DWIDTH 16 0
BBX 16 15 0 0
BITMAP
0788888888610000
0A46666665597000
0996666666995900
0995B99999A5A660
09955BAAAA5A58A1
0874470000949A55
599999910019A658
59999991000A955A
35555551000AA559
288668400056A857
09955B7778A75A82
09956666658894A0
09937777765A5A20
097AAAAAAA85A300
0CAAAAAAAAA71000
ENDCHAR
STARTCHAR Ntilde
ENCODING 209
SWIDTH 877 0
DWIDTH 16 0
BBX 15 20 0 0
BITMAP
0000344444032100
000A7666662A7300
0055A9999993A000
006563AAAAAA3000
0000000000000000
2642652000434550
3E5A859000766AA0
37A75A7400766AA0
3777A67A00766AA0
379A58A580766AA0
37A4A95992766AA0
37A975A75A766AA0
37AA2A66A6856AA0
37AA668A57A46AA0
37AA649599594AA0
37AA641A85A83AA0
37AA64066A66A6A0
37AA6400A57A66A0
37AA640038958AB0
37AA6400085985E0
ENDCHAR
STARTCHAR Ograve
ENCODING 210
SWIDTH 933 0
DWIDTH 17 0
BBX 17 21 0 -1
BITMAP
0003A5000000000000
002A66A50000000000
00004A76A500000000
0000004A6200000000
000000012100000000
000029A878A8100000
000795999985A40000
007687589859785000
04895A65658967A200
0A66A4A64695985900
28A75A000019759A00
658A72000005599730
756990000002799540
657991000003699630
46995600000957A810
0A8598600186A56A00
075A6859994A5A7500
01A5A5A98A94A59000
002A499556985A1000
00018955556A700000
000001689851000000
ENDCHAR
STARTCHAR Oacute
ENCODING 211
SWIDTH 933 0
DWIDTH 17 0
BBX 17 21 0 -1
BITMAP
000000000006A10000
0000000017A58A1000
00000007A58A300000
000000028930000000
000000013100000000
000029A878A8100000
000795999985A40000
007687589859785000
04895A65658967A200
0A66A4A64695985900
28A75A000019759A00
658A72000005599730
756990000002799540
657991000003699630
46995600000957A810
0A8598600186A56A00
075A6859994A5A7500
01A5A5A98A94A59000
002A499556985A1000
00018955556A700000
000001689851000000
ENDCHAR
STARTCHAR Ocircumflex
ENCODING 212
SWIDTH 933 0
DWIDTH 17 0
BBX 17 22 0 -1
BITMAP
0000000A4700000000
000000299A00000000
00000084A550000000
000000A956A0000000
000001340440000000
000000012100000000
000029A878A8100000
000795999985A40000
007687589859785000
04895A65658967A200
0A66A4A64695985900
28A75A000019759A00
658A72000005599730
756990000002799540
657991000003699630
46995600000957A810
0A8598600186A56A00
075A6859994A5A7500
01A5A5A98A94A59000
002A499556985A1000
00018955556A700000
000001689851000000
ENDCHAR
STARTCHAR Otilde
ENCODING 213
SWIDTH 933 0
DWIDTH 17 0
BBX 17 21 0 -1
BITMAP
000014444431230000
0004A66666456A0000
000A4A999997570000
0008808AAAA9800000
000000012100000000
000029A878A8100000
000795999985A40000
007687589859785000
04895A65658967A200
0A66A4A64695985900
28A75A000019759A00
658A72000005599730
756990000002799540
657991000003699630
46995600000957A810
0A8598600186A56A00
075A6859994A5A7500
01A5A5A98A94A59000
002A499556985A1000
00018955556A700000
000001689851000000
ENDCHAR
STARTCHAR Odieresis
ENCODING 214
SWIDTH 933 0
DWIDTH 17 0
BBX 17 20 0 -1
BITMAP
000022110212300000
000099540766A00000
000076430544700000
000000012100000000
000029A878A8100000
000795999985A40000
007687589859785000
04895A65658967A200
0A66A4A64695985900
28A75A000019759A00
658A72000005599730
756990000002799540
657991000003699630
46995600000957A810
0A8598600186A56A00
075A6859994A5A7500
01A5A5A98A94A59000
002A499556985A1000
00018955556A700000
000001689851000000
ENDCHAR
STARTCHAR multiply
ENCODING 215
SWIDTH 790 0
DWIDTH 14 0
BBX 14 13 0 0
BITMAP
43734710735626
1B67A5857A4892
047A495B66A570
0094A695A75B00
001A768A498300
00066B57A49000
000095B66B1000
0003994A776000
000A5894A5A100
0066B57A5A4900
02A85A6794A740
0A4984A75A66B1
57A58A21B67A58
ENDCHAR
STARTCHAR Oslash
ENCODING 216
SWIDTH 938 0
DWIDTH 17 0
BBX 17 20 0 -3
BITMAP
000000000009420000
000000012118A55000
000029A878A85A0000
000795999985A50000
008687589859794000
04795A65658967A100
0A66A4A64795985800
27A759000019759A00
658A82000006599730
756990000002799540
757990000004699630
46995600000957A910
0A8598600186A66A00
085A6859994A5A7400
01A595A98A95A59000
002A499556985A1000
00079955556A700000
007596689851000000
006859000000000000
000262000000000000
ENDCHAR
STARTCHAR Ugrave
ENCODING 217
SWIDTH 905 0
DWIDTH 16 0
BBX 16 21 0 -1
BITMAP
0005930000000000
005A58A300000000
00017A57A3000000
0000006A41000000
0000000000000000
2355410000055334
45997200000AA668
45997200000AA668
45997200000AA668
45997200000AA668
45997200000AA668
45997200000AA668
45997200000AA668
46997300000AA667
27A956000038A856
0A957A4002B57A73
08597679985A76A0
01A695A99A778830
003A5A8667A68600
0002A855557A3000
0000027997300000
ENDCHAR
STARTCHAR Uacute
ENCODING 218
SWIDTH 905 0
DWIDTH 16 0
BBX 16 21 0 -1
BITMAP
0000000000288000
0000000029959700
0000001995981000
00000003A8100000
0000000010000000
2355410000055334
45997200000AA668
45997200000AA668
45997200000AA668
45997200000AA668
45997200000AA668
45997200000AA668
45997200000AA668
46997300000AA667
27A956000038A856
0A957A4002B57A73
08597679985A76A0
01A695A99A778830
003A5A8667A68600
0002A855557A3000
0000027997300000
ENDCHAR
STARTCHAR Ucircumflex
ENCODING 219
SWIDTH 905 0
DWIDTH 16 0
BBX 16 22 0 -1
BITMAP
0000001C54000000
0000007969000000
000000A2A9100000
0000047995700000
0000032322400000
0000000000000000
2355410000055334
45997200000AA668
45997200000AA668
45997200000AA668
45997200000AA668
45997200000AA668
45997200000AA668
45997200000AA668
46997300000AA667
27A956000038A856
0A957A4002B57A73
08597679985A76A0
01A695A99A778830
003A5A8667A68600
0002A855557A3000
0000027997300000
ENDCHAR
STARTCHAR Udieresis
ENCODING 220
SWIDTH 905 0
DWIDTH 16 0
BBX 16 20 0 -1
BITMAP
0001222003212000
000379900A866000
0002577007544000
0000000000000000
2355410000055334
45997200000AA668
45997200000AA668
45997200000AA668
45997200000AA668
45997200000AA668
45997200000AA668
45997200000AA668
46997300000AA667
27A956000038A856
0A957A4002B57A73
08597679985A76A0
01A695A99A778830
003A5A8667A68600
0002A855557A3000
0000027997300000
ENDCHAR
STARTCHAR Yacute
ENCODING 221
SWIDTH 789 0
DWIDTH 14 0
BBX 14 20 0 0
BITMAP
00000000028800
00000002995970
00000199598100
0000003A810000
00000001000000
53355000054345
37996400189866
09757900766990
04699641997560
00975797579910
00469949976700
00098696798100
00056898668000
00009668981000
00006B86680000
00002899550000
00002899550000
00002899550000
00002899550000
00002899550000
ENDCHAR
STARTCHAR Thorn
ENCODING 222
SWIDTH 798 0
DWIDTH 14 0
BBX 14 18 0 -2
BITMAP
01221100000000
37996400000000
37996A88730000
3799686657A200
379968667A5A30
37996B99A785A0
37996BAA867A65
3799640039A659
37996400097679
379964000A856A
37996788A5A857
379966556B5891
37996666579760
37996899859700
379968A9A92000
37996400000000
37996400000000
12221100000000
ENDCHAR
STARTCHAR germandbls
ENCODING 223
SWIDTH 826 0
DWIDTH 15 0
BBX 15 18 0 -2
BITMAP
0000023331000000
0008A87778A50000
01A59A999A768000
085B5899975A7400
1995956665A66A00
37A958444A569900
46AA76666B669A00
46AA756666A75800
46AA768889986700
46AA77999A58A820
46AA7300037A9640
46AA76777A59A730
46AA756666A58B10
46AA7677756A6700
46AA77AAA9679000
46AA77AAAAA50000
46AA730000000000
1233210000000000
ENDCHAR
STARTCHAR agrave
ENCODING 224
SWIDTH 832 0
DWIDTH 15 0
BBX 15 19 0 -1
BITMAP
004A400000000000
04A67A4000000000
0006A67A40000000
000005A510000000
0000000100000000
00017AAAA9400000
003B57AA967A1000
02A5A56756A5B000
0A5979566B5A6600
28A66997A6957A00
658A65000957A820
756990000469A730
757A9100037AA640
46994910157AA640
0B75A589857AA640
058867A9967AA640
00696A98967AA640
0004A855667AA640
0000024530000000
ENDCHAR
STARTCHAR aacute
ENCODING 225
SWIDTH 832 0
DWIDTH 15 0
BBX 15 19 0 -1
BITMAP
0000000001791000
000000018A589000
0000018959920000
0000002992000000
0000000100000000
00017AAAA9400000
003B57AA967A1000
02A5A56756A5B000
0A5979566B5A6600
28A66997A6957A00
658A65000957A820
756990000469A730
757A9100037AA640
46994910157AA640
0B75A589857AA640
058867A9967AA640
00696A98967AA640
0004A855667AA640
0000024530000000
ENDCHAR
STARTCHAR acircumflex
ENCODING 226
SWIDTH 832 0
DWIDTH 15 0
BBX 15 20 0 -1
BITMAP
000000C460000000
00000497A0000000
00000A2A73000000
000029A659000000
0000224134000000
0000000000000000
00017AAAA9400000
003B57AA967A1000
02A5A56756A5B000
0A5979566B5A6600
28A66997A6957A00
658A65000957A820
756990000469A730
757A9100037AA640
46994910157AA640
0B75A589857AA640
058867A9967AA640
00696A98967AA640
0004A855667AA640
0000024530000000
ENDCHAR
STARTCHAR atilde
ENCODING 227
SWIDTH 832 0
DWIDTH 15 0
BBX 15 19 0 -1
BITMAP
0001444442123000
0069666663758000
00A6A99999675000
017909AAAAA70000
0000000000000000
00017AAAA9400000
003B57AA967A1000
02A5A56756A5B000
0A5979566B5A6600
28A66997A6957A00
658A65000957A820
756990000469A730
757A9100037AA640
46994910157AA640
0B75A589857AA640
058867A9967AA640
00696A98967AA640
0004A855667AA640
0000024530000000
ENDCHAR
STARTCHAR adieresis
ENCODING 228
SWIDTH 832 0
DWIDTH 15 0
BBX 15 18 0 -1
BITMAP
0002221021120000
0009972096680000
0006751074460000
0000000000000000
00017AAAA9400000
003B57AA967A1000
02A5A56756A5B000
0A5979566B5A6600
28A66997A6957A00
658A65000957A820
756990000469A730
757A9100037AA640
46994910157AA640
0B75A589857AA640
058867A9967AA640
00696A98967AA640
0004A855667AA640
0000024530000000
ENDCHAR
STARTCHAR aring
ENCODING 229
SWIDTH 832 0
DWIDTH 15 0
BBX 15 20 0 -1
BITMAP
0000006740000000
0000087775000000
0000088088000000
0000089777000000
0000038881000000
0000000100000000
00017AAAA9400000
003B57AA967A1000
02A5A56756A5B000
0A5979566B5A6600
28A66997A6957A00
658A65000957A820
756990000469A730
757A9100037AA640
46994910157AA640
0B75A589857AA640
058867A9967AA640
00696A98967AA640
0004A855667AA640
0000024530000000
ENDCHAR
STARTCHAR ae
ENCODING 230
SWIDTH 1166 0
DWIDTH 21 0
BBX 21 14 0 -1
BITMAP
00017AAAA9456499999930
003B57AA967A9686666620
02A5A56756A5B685555510
0A5979566B5A6C98888820
28A66997A6957D40000000
658A65000957A8BAAAA900
756990000469A7BAAAA900
757A9100037AA686666500
46994910157AA664444400
0B75A589857AA653333310
058867A9967AA697777720
00696A98967AA6BAAAAA30
0004A855667AA6BAAAAA30
0000024530000000000000
ENDCHAR
STARTCHAR ccedilla
ENCODING 231
SWIDTH 736 0
DWIDTH 13 0
BBX 13 20 0 -6
BITMAP
00000034300000
000299767A8100
004A59A9A95A20
02A6959A959560
0A588757587400
28A66A63781000
658A7400000000
75699000000000
75798100000000
46A84A10270000
0A75A49A948000
057A5998A86820
00868A656A7860
0006A66666A400
000018FFE40000
00005957600000
00009596200000
00009562100000
00007567300000
000007AA400000
ENDCHAR
STARTCHAR egrave
ENCODING 232
SWIDTH 666 0
DWIDTH 12 0
BBX 12 18 0 0
BITMAP
069200000000
6A5893000000
017A58920000
00017A410000
000000000000
24664A999993
37AA68666662
37AA68555552
37AA69888882
37AA64000000
37AA6BAAAA90
37AA6BAAAA90
37AA68666660
37AA67444440
37AA66333331
37AA69777772
37AA6BAAAAA3
37AA6BAAAAA3
ENDCHAR
STARTCHAR eacute
ENCODING 233
SWIDTH 666 0
DWIDTH 12 0
BBX 12 18 0 0
BITMAP
000000002970
0000002995A7
00002985A810
000003A71000
000000100000
24664A999993
37AA68666662
37AA68555552
37AA69888882
37AA64000000
37AA6BAAAA90
37AA6BAAAA90
37AA68666660
37AA67444440
37AA66333331
37AA69777772
37AA6BAAAAA3
37AA6BAAAAA3
ENDCHAR
STARTCHAR ecircumflex
ENCODING 234
SWIDTH 666 0
DWIDTH 12 0
BBX 12 19 0 0
BITMAP
00002C630000
000079590000
0000A3991000
000469956000
000423224000
000000000000
24664A999993
37AA68666662
37AA68555552
37AA69888882
37AA64000000
37AA6BAAAA90
37AA6BAAAA90
37AA68666660
37AA67444440
37AA66333331
37AA69777772
37AA6BAAAAA3
37AA6BAAAAA3
ENDCHAR
STARTCHAR edieresis
ENCODING 235
SWIDTH 666 0
DWIDTH 12 0
BBX 12 17 0 0
BITMAP
012220032110
0469900A9650
024770076430
000000000000
24664A999993
37AA68666662
37AA68555552
37AA69888882
37AA64000000
37AA6BAAAA90
37AA6BAAAA90
37AA68666660
37AA67444440
37AA66333331
37AA69777772
37AA6BAAAAA3
37AA6BAAAAA3
ENDCHAR
STARTCHAR igrave
ENCODING 236
SWIDTH 337 0
DWIDTH 6 0
BBX 9 18 -3 0
BITMAP
0692000000
6A58930000
017A589200
00017A4100
0000000000
0002466420
00037AA640
00037AA640
00037AA640
00037AA640
00037AA640
00037AA640
00037AA640
00037AA640
00037AA640
00037AA640
00037AA640
00037AA640
ENDCHAR
STARTCHAR iacute
ENCODING 237
SWIDTH 337 0
DWIDTH 6 0
BBX 9 18 0 0
BITMAP
0000029700
0002995A70
02985A8100
013A710000
0001000000
2466420000
37AA640000
37AA640000
37AA640000
37AA640000
37AA640000
37AA640000
37AA640000
37AA640000
37AA640000
37AA640000
37AA640000
37AA640000
ENDCHAR
STARTCHAR icircumflex
ENCODING 238
SWIDTH 337 0
DWIDTH 6 0
BBX 6 19 0 0
BITMAP
02B630
089590
0A3991
569956
423224
000000
246642
37AA64
37AA64
37AA64
37AA64
37AA64
37AA64
37AA64
37AA64
37AA64
37AA64
37AA64
37AA64
ENDCHAR
STARTCHAR idieresis
ENCODING 239
SWIDTH 337 0
DWIDTH 6 0
BBX 10 17 -2 0
BITMAP
1122003211
469900A965
3477007643
0000000000
0024664200
0037AA6400
0037AA6400
0037AA6400
0037AA6400
0037AA6400
0037AA6400
0037AA6400
0037AA6400
0037AA6400
0037AA6400
0037AA6400
0037AA6400
ENDCHAR
STARTCHAR eth
ENCODING 240
SWIDTH 783 0
DWIDTH 14 0
BBX 14 17 0 -1
BITMAP
00000122000000
0028A877993000
04959A99957700
00586899679650
000476656B57A0
00003545A58A63
0000021028A855
00299789599856
04A59999499856
1A776999599856
65996677499856
866AA31266A955
758A5999786A82
29959A99A695A0
077896668A5B20
006B6566599100
00015898620000
ENDCHAR
STARTCHAR ntilde
ENCODING 241
SWIDTH 787 0
DWIDTH 14 0
BBX 14 18 0 0
BITMAP
00024444412220
0088666662A560
0288A999995920
04591AAAAAA500
00000000000000
28537520006643
3E5A85A0009855
37B75A74009855
3786A66A009855
379A57A6609855
37A48A58A19855
37A89599589855
37AA1A85A96855
37AA075A75A855
37AA00A66B7955
37AA0057A66A55
37AA000A58A5B5
37AA00039958A5
ENDCHAR
STARTCHAR ograve
ENCODING 242
SWIDTH 833 0
DWIDTH 15 0
BBX 15 19 0 -1
BITMAP
002A500000000000
02A76A6000000000
0004A76A60000000
000004A620000000
0000003330000000
000299767A810000
004A59A9A95A2000
02A6959995A5A100
0A58875758795900
28A66A6379759910
658A74000659A640
7569900001898660
75798100037A9650
46A84A102A57A820
0A75A49994A66A00
057A599898598300
00868A656A776000
0006A65556A40000
0000158984000000
ENDCHAR
STARTCHAR oacute
ENCODING 243
SWIDTH 833 0
DWIDTH 15 0
BBX 15 19 0 -1
BITMAP
00000000006A1000
000000006A57A100
0000007A58A30000
0000002793000000
0000003530000000
000299767A810000
004A59A9A95A2000
02A6959995A5A100
0A58875758795900
28A66A6379759910
658A74000659A640
7569900001898660
75798100037A9650
46A84A102A57A820
0A75A49994A66A00
057A599898598300
00868A656A776000
0006A65556A40000
0000158984000000
ENDCHAR
STARTCHAR ocircumflex
ENCODING 244
SWIDTH 833 0
DWIDTH 15 0
BBX 15 20 0 -1
BITMAP
000000A480000000
0000029991000000
0000084956000000
00000A857A000000
0000134044000000
0000003430000000
000299767A810000
004A59A9A95A2000
02A6959995A5A100
0A58875758795900
28A66A6379759910
658A74000659A640
7569900001898660
75798100037A9650
46A84A102A57A820
0A75A49994A66A00
057A599898598300
00868A656A776000
0006A65556A40000
0000158984000000
ENDCHAR
STARTCHAR otilde
ENCODING 245
SWIDTH 833 0
DWIDTH 15 0
BBX 15 19 0 -1
BITMAP
0001444443023000
004A66666456A000
00A4A99999747000
008817AAAA980000
0000003430000000
000299767A810000
004A59A9A95A2000
02A6959995A5A100
0A58875758795900
28A66A6379759910
658A74000659A640
7569900001898660
75798100037A9650
46A84A102A57A820
0A75A49994A66A00
057A599898598300
00868A656A776000
0006A65556A40000
0000158984000000
ENDCHAR
STARTCHAR odieresis
ENCODING 246
SWIDTH 833 0
DWIDTH 15 0
BBX 15 18 0 -1
BITMAP
0002211021230000
00099550767A0000
0007643054570000
0000003430000000
000299767A810000
004A59A9A95A2000
02A6959995A5A100
0A58875758795900
28A66A6379759910
658A74000659A640
7569900001898660
75798100037A9650
46A84A102A57A820
0A75A49994A66A00
057A599898598300
00868A656A776000
0006A65556A40000
0000158984000000
ENDCHAR
STARTCHAR divide
ENCODING 247
SWIDTH 260 0
DWIDTH 5 0
BBX 7 12 -1 0
BITMAP
01122000
036AA000
036AA000
03699000
00000000
5AAAAA20
5AAAAA20
00000000
03699000
036AA000
036AA000
01122000
ENDCHAR
STARTCHAR oslash
ENCODING 248
SWIDTH 832 0
DWIDTH 15 0
BBX 15 17 0 -2
BITMAP
0000000000500000
0000003433792000
000299767A95A000
004A59A9A95A4000
02A6959A9595A100
0A58975758795900
28A66A6379759910
658A740006599640
866AA00001898550
767A9100036A9550
46A94A102A57A820
0A75A49994A66A00
057A5998A8598300
008689656A786000
0086A65556A40000
014A568984000000
0001700000000000
ENDCHAR
STARTCHAR ugrave
ENCODING 249
SWIDTH 795 0
DWIDTH 14 0
BBX 14 19 0 -1
BITMAP
005A3000000000
05A58A30000000
0016A57A300000
000006A4100000
00000001000000
34665200066445
469A7200099558
469A7200099558
469A7200099558
469A7200099558
469A7200099558
469A7200099558
46AA730009A658
28A8590066A856
0A75B599695A82
066A5AA9A5A590
009599667A5B10
00079555589100
00001699720000
ENDCHAR
STARTCHAR uacute
ENCODING 250
SWIDTH 795 0
DWIDTH 14 0
BBX 14 19 0 -1
BITMAP
00000000018800
00000002895980
00000199598200
00000039810000
00000001000000
34665200066445
469A7200099558
469A7200099558
469A7200099558
469A7200099558
469A7200099558
469A7200099558
46AA730009A658
28A8590066A856
0A75B599695A82
066A5AA9A5A590
009599667A5B10
00079555589100
00001699720000
ENDCHAR
STARTCHAR ucircumflex
ENCODING 251
SWIDTH 795 0
DWIDTH 14 0
BBX 14 20 0 -1
BITMAP
000001C5400000
00000696A00000
00000A2A820000
000037A8570000
00003232340000
00000000000000
34665200066445
469A7200099558
469A7200099558
469A7200099558
469A7200099558
469A7200099558
469A7200099558
46AA730009A658
28A8590066A856
0A75B599695A82
066A5AA9A5A590
009599667A5B10
00079555589100
00001699720000
ENDCHAR
STARTCHAR udieresis
ENCODING 252
SWIDTH 795 0
DWIDTH 14 0
BBX 14 18 0 -1
BITMAP
00122200321200
00279900A76600
00157600754400
00000000000000
34665200066445
469A7200099558
469A7200099558
469A7200099558
469A7200099558
469A7200099558
469A7200099558
46AA730009A658
28A8590066A856
0A75B599695A82
066A5AA9A5A590
009599667A5B10
00079555589100
00001699720000
ENDCHAR
STARTCHAR yacute
ENCODING 253
SWIDTH 733 0
DWIDTH 13 0
BBX 13 18 0 0
BITMAP
0000000005A300
00000005A66A20
000005A67A5000
0000026A400000
00000010000000
54466000644560
27986601897660
09669917669900
027A7579975700
00856975799100
0027A499767000
00085967981000
00028986680000
00009689810000
00007569900000
00007569900000
00007569900000
00007569900000
ENDCHAR
STARTCHAR thorn
ENCODING 254
SWIDTH 833 0
DWIDTH 15 0
BBX 15 17 0 -2
BITMAP
1455320000000000
3799640000000000
3799640000000000
3799640000000000
3799609999940000
379961777757A100
37996255556A5900
3799616667A5A920
379960999A6A9650
37996255568A9660
379962666686B730
37996199985A5A00
379960AAAAA5A200
3799618888A81000
3799632222000000
3799640000000000
2699530000000000
ENDCHAR
STARTCHAR ydieresis
ENCODING 255
SWIDTH 733 0
DWIDTH 13 0
BBX 13 17 0 0
BITMAP
00221201123000
0096570469A000
00744503477000
00000000000000
54466000644560
27986601897660
09669917669900
027A7579975700
00856975799100
0027A499767000
00085967981000
00028986680000
00009689810000
00007569900000
00007569900000
00007569900000
00007569900000
ENDCHAR
STARTCHAR Amacron
ENCODING 256
SWIDTH 936 0
DWIDTH 17 0
BBX 17 15 0 0
BITMAP
000001743560000000
000006C58A73000000
00000A38A759000000
0000288A6599100000
000085776A95600000
0000A956A957A00000
00056A94957A730000
000A659938A7590000
0028A6590A659A1000
00857A730669956000
00A857A7A7A957A000
056A959AAAA57A8300
0A65A9566667A75800
28A65934443A759A00
858A74000006599650
ENDCHAR
STARTCHAR amacron
ENCODING 257
SWIDTH 832 0
DWIDTH 15 0
BBX 15 14 0 -1
BITMAP
00017AAAA9400000
003B57AA967A1000
02A5A56756A5B000
0A5979566B5A6600
28A66997A6957A00
658A65000957A820
756990000469A730
757A9100037AA640
46994910157AA640
0B75A589857AA640
058867A9967AA640
00696A98967AA640
0004A855667AA640
0000024530000000
ENDCHAR
STARTCHAR Abreve
ENCODING 258
SWIDTH 936 0
DWIDTH 17 0
BBX 17 19 0 0
BITMAP
000001210220000000
000001988890000000
000000387820000000
000000000000000000
000001743560000000
000006C58A73000000
00000A38A759000000
0000288A6599100000
000085776A95600000
0000A956A957A00000
00056A94957A730000
000A659938A7590000
0028A6590A659A1000
00857A730669956000
00A857A7A7A957A000
056A959AAAA57A8300
0A65A9566667A75800
28A65934443A759A00
858A74000006599650
ENDCHAR
STARTCHAR abreve
ENCODING 259
SWIDTH 832 0
DWIDTH 15 0
BBX 15 18 0 -1
BITMAP
0000121022000000
0000388878000000
0000058781000000
0000000000000000
00017AAAA9400000
003B57AA967A1000
02A5A56756A5B000
0A5979566B5A6600
28A66997A6957A00
658A65000957A820
756990000469A730
757A9100037AA640
46994910157AA640
0B75A589857AA640
058867A9967AA640
00696A98967AA640
0004A855667AA640
0000024530000000
ENDCHAR
STARTCHAR Aogonek
ENCODING 260
SWIDTH 937 0
DWIDTH 17 0
BBX 17 21 0 -6
BITMAP
000000733650000000
000004C59A55000000
00000929956A000000
0000198957A8200000
000075957A85800000
0000A758A758A00000
00037A85859A650000
000956A839A56A0000
0019956A0956A82000
00659A65047A858000
00A759A7A7A758A000
037A75AAAAA59A6500
0957A8666659A66A00
19956A34443966A920
6599563840046A8570
000004942000000000
000009492000000000
000009643000000000
000009657000000000
000009657000000000
000001000000000000
ENDCHAR
STARTCHAR aogonek
ENCODING 261
SWIDTH 832 0
DWIDTH 15 0
BBX 15 20 0 -7
BITMAP
00017AAAA9400000
003B57AA967A1000
02A5A56756A5B000
0A5979566B5A6600
28A66997A6957A00
658A65000957A820
756990000469A730
757A9100037AA640
46994910157AA640
0B75A589857AA640
058867A9967AA640
00696A98967AA640
0004A855667AA640
000006D830000000
0000674200000000
0000A58100000000
0000983200000000
0000985500000000
0000985500000000
0000110000000000
ENDCHAR
STARTCHAR Cacute
ENCODING 262
SWIDTH 852 0
DWIDTH 15 0
BBX 15 21 0 -1
BITMAP
000000000006A100
0000000017A58A10
00000007A58A3000
0000000289300000
0000000131000000
000029A879A71000
000795999985A400
0076875898597940
04895A6565796750
0A66A4A647A58200
28A75A0000160000
658A720000000000
7569900000000000
6579910000000000
4699560000020000
0A85986001865000
075A6859995A5810
01A5A5A98A95A590
002A499556986A00
00018955556A7000
0000016898500000
ENDCHAR
STARTCHAR cacute
ENCODING 263
SWIDTH 736 0
DWIDTH 13 0
BBX 14 19 0 -1
BITMAP
00000000006A10
000000006A57A1
0000007A58A300
00000027930000
00000035300000
000299767A8100
004A59A9A95A20
02A6959A959560
0A588757587400
28A66A63781000
658A7400000000
75699000000000
75798100000000
46A84A10270000
0A75A49A948000
057A5998A86820
00868A656A7860
0006A65556A400
00001589840000
ENDCHAR
STARTCHAR Cdotaccent
ENCODING 266
SWIDTH 852 0
DWIDTH 15 0
BBX 15 21 0 -1
BITMAP
0000002888000000
0000001666000000
0000001666000000
0000002999000000
0000000121000000
000029A879A71000
000795999985A400
0076875898597940
04895A6565796750
0A66A4A647A58200
28A75A0000160000
658A720000000000
7569900000000000
6579910000000000
4699560000020000
0A85986001865000
075A6859995A5810
01A5A5A98A95A590
002A499556986A00
00018955556A7000
0000016898500000
ENDCHAR
STARTCHAR cdotaccent
ENCODING 267
SWIDTH 736 0
DWIDTH 13 0
BBX 13 19 0 -1
BITMAP
00000188800000
00000166600000
00000166600000
00000199900000
00000034300000
000299767A8100
004A59A9A95A20
02A6959A959560
0A588757587400
28A66A63781000
658A7400000000
75699000000000
75798100000000
46A84A10270000
0A75A49A948000
057A5998A86820
00868A656A7860
0006A65556A400
00001589840000
ENDCHAR
STARTCHAR Ccaron
ENCODING 268
SWIDTH 852 0
DWIDTH 15 0
BBX 15 22 0 -1
BITMAP
0000026817800000
000000A685900000
00000064A7300000
0000001C7A000000
0000000524000000
0000000121000000
000029A879A71000
000795999985A400
0076875898597940
04895A6565796750
0A66A4A647A58200
28A75A0000160000
658A720000000000
7569900000000000
6579910000000000
4699560000020000
0A85986001865000
075A6859995A5810
01A5A5A98A95A590
002A499556986A00
00018955556A7000
0000016898500000
ENDCHAR
STARTCHAR ccaron
ENCODING 269
SWIDTH 736 0
DWIDTH 13 0
BBX 13 20 0 -1
BITMAP
00001781881000
00000A67590000
0000055A740000
000000C7A00000
00000052400000
00000034300000
000299767A8100
004A59A9A95A20
02A6959A959560
0A588757587400
28A66A63781000
658A7400000000
75699000000000
75798100000000
46A84A10270000
0A75A49A948000
057A5998A86820
00868A656A7860
0006A65556A400
00001589840000
ENDCHAR
STARTCHAR Dcaron
ENCODING 270
SWIDTH 886 0
DWIDTH 16 0
BBX 16 21 0 0
BITMAP
0000064754800000
00000287A6400000
000000A38A000000
0000005D57000000
0000000631000000
0000000000000000
2888888887400000
37566666656A4000
37B5666667A78500
37AA99999A868920
37AA4AAAA95A8590
37AA640001A65991
37AA640000659A63
37AA64000037A955
37AA64000046A955
37AA640000957A82
37AA6977796A57A0
37AA466665A5A660
37A57777765A5A00
37AAAAAAA966A100
3CAAAAAAAAA50000
ENDCHAR
STARTCHAR dcaron
ENCODING 271
SWIDTH 1084 0
DWIDTH 20 0
BBX 19 14 0 0
BITMAP
00000000000000011220
2A999999972000046AA0
37566666558900046AA0
37B5555568A5A00129A0
37AA88889A5A570295A0
37AA5A99A6A59A115860
37AA64000959A6427300
37AA6400037A95600000
37AA6400065A95500000
37AA69778976A9200000
37AA466669895A000000
37A477777596A2000000
37AAAAAAA85B30000000
3CAAAAAAAA7100000000
ENDCHAR
STARTCHAR Dcroat
ENCODING 272
SWIDTH 888 0
DWIDTH 16 0
BBX 17 15 -1 0
BITMAP
018888888875000000
037566666656A40000
037B5666667A785000
0379A99999A8689200
037994AAAA95A85900
03799640001A65A910
81799609700659A640
8179960970037A9550
5579966640046AA550
34799654300957A820
037996977797A57A00
03799466665A5B6600
037947777765B5A000
037AAAAAAA966A1000
03CAAAAAAAAA500000
ENDCHAR
STARTCHAR dcroat
ENCODING 273
SWIDTH 833 0
DWIDTH 15 0
BBX 16 13 -1 0
BITMAP
02A9999999720000
0375666665588000
037B5555568A5A00
037AA88889A5A570
037AA5A99A6A58A0
417AA62430959A64
417AA6253037A955
877AA6797065AA65
037AA69778976A91
037AA466669895A0
037A5777765A6A20
037AAAAAAA85B300
03CAAAAAAAA71000
ENDCHAR
STARTCHAR Emacron
ENCODING 274
SWIDTH 706 0
DWIDTH 13 0
BBX 12 15 0 0
BITMAP
245538888888
37AA68666666
37AA68666666
37AA6B999999
37AA64000000
37AA64000000
37AA6B997000
37AA6A996000
37AA68554000
37AA67443000
37AA64000000
37AA66333333
37AA69777777
37AA6BAAAAA9
37AA6BAAAAA9
ENDCHAR
STARTCHAR emacron
ENCODING 275
SWIDTH 666 0
DWIDTH 12 0
BBX 12 13 0 0
BITMAP
24664A999993
37AA68666662
37AA68555552
37AA69888882
37AA64000000
37AA6BAAAA90
37AA6BAAAA90
37AA68666660
37AA67444440
37AA66333331
37AA69777772
37AA6BAAAAA3
37AA6BAAAAA3
ENDCHAR
STARTCHAR Ebreve
ENCODING 276
SWIDTH 706 0
DWIDTH 13 0
BBX 12 19 0 0
BITMAP
000121022000
000188879000
000038782000
000000000000
245538888888
37AA68666666
37AA68666666
37AA6B999999
37AA64000000
37AA64000000
37AA6B997000
37AA6A996000
37AA68554000
37AA67443000
37AA64000000
37AA66333333
37AA69777777
37AA6BAAAAA9
37AA6BAAAAA9
ENDCHAR
STARTCHAR ebreve
ENCODING 277
SWIDTH 666 0
DWIDTH 12 0
BBX 12 17 0 0
BITMAP
000220022000
000578877000
000067770000
000000000000
24664A999993
37AA68666662
37AA68555552
37AA69888882
37AA64000000
37AA6BAAAA90
37AA6BAAAA90
37AA68666660
37AA67444440
37AA66333331
37AA69777772
37AA6BAAAAA3
37AA6BAAAAA3
ENDCHAR
STARTCHAR Edotaccent
ENCODING 278
SWIDTH 706 0
DWIDTH 13 0
BBX 12 20 0 0
BITMAP
000002220000
000018870000
000029990000
000029990000
000000000000
245538888888
37AA68666666
37AA68666666
37AA6B999999
37AA64000000
37AA64000000
37AA6B997000
37AA6A996000
37AA68554000
37AA67443000
37AA64000000
37AA66333333
37AA69777777
37AA6BAAAAA9
37AA6BAAAAA9
ENDCHAR
STARTCHAR edotaccent
ENCODING 279
SWIDTH 666 0
DWIDTH 12 0
BBX 12 18 0 0
BITMAP
000012210000
000048850000
000059960000
000059960000
000000000000
24664A999993
37AA68666662
37AA68555552
37AA69888882
37AA64000000
37AA6BAAAA90
37AA6BAAAA90
37AA68666660
37AA67444440
37AA66333331
37AA69777772
37AA6BAAAAA3
37AA6BAAAAA3
ENDCHAR
STARTCHAR Eogonek
ENCODING 280
SWIDTH 706 0
DWIDTH 13 0
BBX 12 21 0 -6
BITMAP
245538888888
37AA68666665
37AA68666665
37AA6B999999
37AA64000000
37AA64000000
37AA6B996000
37AA6A996000
37AA68554000
37AA67443000
37AA64000000
37AA65333332
37AA69777777
37AA6BAAAAA9
37AA6BAAAAFF
000000000A45
0000000027A5
000000003694
000000003699
000000003699
000000000011
ENDCHAR
STARTCHAR eogonek
ENCODING 281
SWIDTH 666 0
DWIDTH 12 0
BBX 12 19 0 -6
BITMAP
24664A999993
37AA68666662
37AA68555552
37AA69888882
37AA64000000
37AA6BAAAA90
37AA6BAAAA90
37AA68666660
37AA67444440
37AA66333331
37AA69777772
37AA6BAAAAA3
37AA6BAAAEF6
000000006752
00000000A681
000000009932
000000009954
000000009954
000000001100
ENDCHAR
STARTCHAR Ecaron
ENCODING 282
SWIDTH 706 0
DWIDTH 13 0
BBX 12 21 0 0
BITMAP
000268178000
0000A6859000
000064A73000
00001C7A0000
000005240000
000000000000
245538888888
37AA68666666
37AA68666666
37AA6B999999
37AA64000000
37AA64000000
37AA6B997000
37AA6A996000
37AA68554000
37AA67443000
37AA64000000
37AA66333333
37AA69777777
37AA6BAAAAA9
37AA6BAAAAA9
ENDCHAR
STARTCHAR ecaron
ENCODING 283
SWIDTH 666 0
DWIDTH 12 0
BBX 12 19 0 0
BITMAP
000647547000
000287A74000
0000A37A0000
00005D570000
000006410000
000000000000
24664A999993
37AA68666662
37AA68555552
37AA69888882
37AA64000000
37AA6BAAAA90
37AA6BAAAA90
37AA68666660
37AA67444440
37AA66333331
37AA69777772
37AA6BAAAAA3
37AA6BAAAAA3
ENDCHAR
STARTCHAR Gbreve
ENCODING 286
SWIDTH 908 0
DWIDTH 16 0
BBX 16 20 0 -1
BITMAP
0000012102200000
0000019887900000
0000003878200000
0000000121000000
000029A879A71000
000795999985A400
0076875898597940
04895A6565796750
0A66A4A647A58200
28A75A0000160000
658A720000000000
7569900000065336
667A900000098559
4699660000098559
19A68A50002A8559
085A87699A8A8559
01A495A989AB8559
002A5A96669B8559
00019955566B8559
0000026898610000
ENDCHAR
STARTCHAR gbreve
ENCODING 287
SWIDTH 827 0
DWIDTH 15 0
BBX 15 18 0 -1
BITMAP
0000121022000000
0000198889000000
0000038782000000
0000003430000000
000299767A810000
004A59A9A95A2000
02A6959A95956000
0A58875758740000
28A66A6378100000
658A740000000000
7569900002244310
757981000469A720
46A84A100869A720
0A75A4999969A720
057A5998AB69A720
00868A656B69A720
0006A6555869A720
0000158984000000
ENDCHAR
STARTCHAR Gdotaccent
ENCODING 288
SWIDTH 908 0
DWIDTH 16 0
BBX 16 21 0 -1
BITMAP
0000002888000000
0000001666000000
0000001666000000
0000002999000000
0000000121000000
000029A879A71000
000795999985A400
0076875898597940
04895A6565796750
0A66A4A647A58200
28A75A0000160000
658A720000000000
7569900000065336
667A900000098559
4699660000098559
19A68A50002A8559
085A87699A8A8559
01A495A989AB8559
002A5A96669B8559
00019955566B8559
0000026898610000
ENDCHAR
STARTCHAR gdotaccent
ENCODING 289
SWIDTH 827 0
DWIDTH 15 0
BBX 15 19 0 -1
BITMAP
0000018880000000
0000016660000000
0000016660000000
0000019990000000
0000003430000000
000299767A810000
004A59A9A95A2000
02A6959A95956000
0A58875758740000
28A66A6378100000
658A740000000000
7569900002244310
757981000469A720
46A84A100869A720
0A75A4999969A720
057A5998AB69A720
00868A656B69A720
0006A6555869A720
0000158984000000
ENDCHAR
STARTCHAR Gcommaaccent
ENCODING 290
SWIDTH 908 0
DWIDTH 16 0
BBX 16 23 0 -7
BITMAP
0000000121000000
000029A879A71000
000795999985A400
0076875898597940
04895A6565796750
0A66A4A647A58200
28A75A0000160000
658A720000000000
7569900000065336
667A900000098559
4699660000098559
19A68A50002A8559
085A87699A8A8559
01A495A989AB8559
002A5A96669B8559
00019955566B8559
0000026898610000
0000002477000000
0000003699000000
0000003599000000
000000029A000000
0000002939000000
0000002A91000000
ENDCHAR
STARTCHAR gcommaaccent
ENCODING 291
SWIDTH 827 0
DWIDTH 15 0
BBX 15 15 0 -1
BITMAP
0000003430000000
000299767A810000
004A59A9A95A2000
02A6959A95956000
0A58875758740000
28A66A6378100000
658A740000000000
7569900002244310
757981000469A720
46A84A100869A720
0A75A4999969A720
057A5998AB69A720
00868A656B69A720
0006A6555869A720
0000158984000000
ENDCHAR
STARTCHAR Hcircumflex
ENCODING 292
SWIDTH 901 0
DWIDTH 16 0
BBX 16 21 0 0
BITMAP
0000001C54000000
0000007959000000
000000A2A9100000
0000047995700000
0000032322400000
0000000000000000
2455320000155433
37AA64000019A866
37AA64000019A866
37AA64000019A866
37AA64000019A866
37AA64000019A866
37AA6BAAAAA9A866
37AA6B9999A9A866
37AA68666669A866
37AA67444459A866
37AA64000019A866
37AA64000019A866
37AA64000019A866
37AA64000019A866
37AA64000019A866
ENDCHAR
STARTCHAR hcircumflex
ENCODING 293
SWIDTH 830 0
DWIDTH 15 0
BBX 15 19 0 0
BITMAP
0000009580000000
0000029A91000000
0000074956000000
00000A857A000000
0000134044100000
0000000000000000
2466420003466510
37AA640005599820
37AA640005599820
37AA640005599820
37AA664447599820
37AA686669599820
37AA6BAAAB599820
37AA6BAAAB599820
37AA640005599820
37AA640005599820
37AA640005599820
37AA640005599820
37AA640005599820
ENDCHAR
STARTCHAR Hbar
ENCODING 294
SWIDTH 901 0
DWIDTH 16 0
BBX 18 15 -1 0
BITMAP
014553200000554330
037996400001998560
5279960AAAA5998526
467996788885998585
147996522222998561
037996400001998560
037996BAAAAA998560
037996B99999998560
037996866666998560
037996744445998560
037996400001998560
037996400001998560
037996400001998560
037996400001998560
037996400001998560
ENDCHAR
STARTCHAR hbar
ENCODING 295
SWIDTH 830 0
DWIDTH 15 0
BBX 17 13 -1 0
BITMAP
024664200034665100
2079962555369A8110
1179962333369A8010
3779967888869A8720
0379966444769A8200
0379968666969A8200
037996BAAAB69A8200
037996BAAAB69A8200
0379964000569A8200
0379964000569A8200
0379964000569A8200
0379964000569A8200
0379964000569A8200
ENDCHAR
STARTCHAR Itilde
ENCODING 296
SWIDTH 338 0
DWIDTH 6 0
BBX 12 20 -3 0
BITMAP
002444441222
098666662A55
2889999994A1
4582AAAAAA40
000000000000
000245532000
00037AA64000
00037AA64000
00037AA64000
00037AA64000
00037AA64000
00037AA64000
00037AA64000
00037AA64000
00037AA64000
00037AA64000
00037AA64000
00037AA64000
00037AA64000
00037AA64000
ENDCHAR
STARTCHAR itilde
ENCODING 297
SWIDTH 337 0
DWIDTH 6 0
BBX 12 18 -3 0
BITMAP
002444441222
098666662A55
2889999994A1
4582AAAAAA40
000000000000
000246642000
00037AA64000
00037AA64000
00037AA64000
00037AA64000
00037AA64000
00037AA64000
00037AA64000
00037AA64000
00037AA64000
00037AA64000
00037AA64000
00037AA64000
ENDCHAR
STARTCHAR Imacron
ENCODING 298
SWIDTH 338 0
DWIDTH 6 0
BBX 6 15 0 0
BITMAP
245532
37AA64
37AA64
37AA64
37AA64
37AA64
37AA64
37AA64
37AA64
37AA64
37AA64
37AA64
37AA64
37AA64
37AA64
ENDCHAR
STARTCHAR imacron
ENCODING 299
SWIDTH 337 0
DWIDTH 6 0
BBX 6 13 0 0
BITMAP
246642
37AA64
37AA64
37AA64
37AA64
37AA64
37AA64
37AA64
37AA64
37AA64
37AA64
37AA64
37AA64
ENDCHAR
STARTCHAR Ibreve
ENCODING 300
SWIDTH 338 0
DWIDTH 6 0
BBX 6 19 0 0
BITMAP
220022
678876
067770
000000
245532
37AA64
37AA64
37AA64
37AA64
37AA64
37AA64
37AA64
37AA64
37AA64
37AA64
37AA64
37AA64
37AA64
37AA64
ENDCHAR
STARTCHAR ibreve
ENCODING 301
SWIDTH 337 0
DWIDTH 6 0
BBX 6 17 0 0
BITMAP
220022
678876
067770
000000
246642
37AA64
37AA64
37AA64
37AA64
37AA64
37AA64
37AA64
37AA64
37AA64
37AA64
37AA64
37AA64
ENDCHAR
STARTCHAR Iogonek
ENCODING 302
SWIDTH 338 0
DWIDTH 6 0
BBX 6 21 0 -6
BITMAP
245532
37AA64
37AA64
37AA64
37AA64
37AA64
37AA64
37AA64
37AA64
37AA64
37AA64
37AA64
37AA64
37AA64
37AFE6
007651
00A771
009932
009964
009964
001100
ENDCHAR
STARTCHAR iogonek
ENCODING 303
SWIDTH 337 0
DWIDTH 6 0
BBX 6 19 0 -6
BITMAP
246642
37AA64
37AA64
37AA64
37AA64
37AA64
37AA64
37AA64
37AA64
37AA64
37AA64
37AA64
37AEE6
007651
00A771
009932
009964
009964
001100
ENDCHAR
STARTCHAR Idotaccent
ENCODING 304
SWIDTH 338 0
DWIDTH 6 0
BBX 6 20 0 0
BITMAP
058850
036640
036640
059960
000000
245532
37AA64
37AA64
37AA64
37AA64
37AA64
37AA64
37AA64
37AA64
37AA64
37AA64
37AA64
37AA64
37AA64
37AA64
ENDCHAR
STARTCHAR dotlessi
ENCODING 305
SWIDTH 337 0
DWIDTH 6 0
BBX 6 13 0 0
BITMAP
246642
37AA64
37AA64
37AA64
37AA64
37AA64
37AA64
37AA64
37AA64
37AA64
37AA64
37AA64
37AA64
ENDCHAR
STARTCHAR IJ
ENCODING 306
SWIDTH 774 0
DWIDTH 14 0
BBX 14 16 0 -1
BITMAP
24553200335541
37AA6400559982
37AA6400559982
37AA6400559982
37AA6400559982
37AA6400559982
37AA6400559982
37AA6400559982
37AA6400559982
37AA6400559982
37AA6400757991
37AA64597948A0
37AA6448A5A570
37AA64356A5A10
37AA643557A100
00000059840000
ENDCHAR
STARTCHAR ij
ENCODING 307
SWIDTH 729 0
DWIDTH 13 0
BBX 13 15 0 -2
BITMAP
25664301665440
37AA64019A8660
37AA64019A8660
37AA64019A8660
37AA64019A8660
37AA64019A8660
37AA64019A8660
37AA64019A8660
37AA64019A8660
37AA64028A8550
37AA645A57A730
37AA6438966A00
37AA6435889400
000000575A5000
0000005A810000
ENDCHAR
STARTCHAR Jcircumflex
ENCODING 308
SWIDTH 434 0
DWIDTH 8 0
BBX 8 22 0 -1
BITMAP
00058810
000AA550
002866A0
00857A82
00431423
00000000
00334550
00657990
00657990
00657990
00657990
00657990
00657990
00657990
00657990
00657990
00856990
696A57A0
58A5A660
356A5A00
35579100
69830000
ENDCHAR
STARTCHAR jcircumflex
ENCODING 309
SWIDTH 393 0
DWIDTH 7 0
BBX 7 21 0 -2
BITMAP
001C5300
00795900
00A2A910
04699560
04232240
00000000
01566430
028A9640
028A9640
028A9640
028A9640
028A9640
028A9640
028A9640
028A9640
047A9640
5A66A820
38976A00
35979300
575A4000
6A710000
ENDCHAR
STARTCHAR Kcommaaccent
ENCODING 310
SWIDTH 815 0
DWIDTH 15 0
BBX 15 22 0 -7
BITMAP
2455320006336510
37AA640037A66A00
37AA6400A56A7400
37AA64037A65A000
37AA640A56A73000
37AA6447A75A0000
37AA64A66A830000
37AA677A65A00000
37AA65A858A10000
37AA647599570000
37AA641A858A1000
37AA640759958000
37AA6401A8599100
37AA640065A95800
37AA64000A759910
0000000000000000
0000007751000000
0000009972000000
0000007972000000
0000001A82000000
00000094A0000000
0000009A30000000
ENDCHAR
STARTCHAR kcommaaccent
ENCODING 311
SWIDTH 801 0
DWIDTH 14 0
BBX 14 20 0 -7
BITMAP
24664200066357
37AA6400759957
37AA64019958A0
37AA640858A650
37AA6428A56A00
37AA64957A7400
37AA618A65A000
37AA63A8599100
37AA6466A85800
37AA640A65A820
37AA64047A7590
37AA6400A56A73
37AA640038A66A
00000000000000
00000157600000
00000289900000
00000269900000
00000019900000
00000193A00000
0000019A200000
ENDCHAR
STARTCHAR kgreenlandic
ENCODING 312
SWIDTH 801 0
DWIDTH 14 0
BBX 14 13 0 0
BITMAP
24664200066357
37AA6400759957
37AA64019958A0
37AA640858A650
37AA6428A56A00
37AA64957A7400
37AA618A65A000
37AA63A8599100
37AA6466A85800
37AA640A65A820
37AA64047A7590
37AA6400A56A73
37AA640038A66A
ENDCHAR
STARTCHAR Lacute
ENCODING 313
SWIDTH 604 0
DWIDTH 11 0
BBX 12 20 0 0
BITMAP
000000005A20
0000005A67A2
00005A67A400
000026A40000
000001000000
245532000000
37AA64000000
37AA64000000
37AA64000000
37AA64000000
37AA64000000
37AA64000000
37AA64000000
37AA64000000
37AA64000000
37AA64000000
37AA66333310
37AA69777720
37AA6BAAAA30
37AA6BAAAA30
ENDCHAR
STARTCHAR lacute
ENCODING 314
SWIDTH 583 0
DWIDTH 11 0
BBX 10 18 0 0
BITMAP
0000029700
0002995A70
02985A8100
013A710000
0001000000
2466420000
37AA640000
37AA640000
37AA640000
37AA640000
37AA640000
37AA640000
37AA640000
37AA640000
37AA663332
37AA697776
37AA6BAAA9
37AA6BAAA9
ENDCHAR
STARTCHAR Lcommaaccent
ENCODING 315
SWIDTH 604 0
DWIDTH 11 0
BBX 11 22 0 -7
BITMAP
245532000000
37AA64000000
37AA64000000
37AA64000000
37AA64000000
37AA64000000
37AA64000000
37AA64000000
37AA64000000
37AA64000000
37AA64000000
37AA66333310
37AA69777720
37AA6BAAAA30
37AA6BAAAA30
000000000000
000077520000
000099720000
000089720000
00001A820000
000094A00000
00009A300000
ENDCHAR
STARTCHAR lcommaaccent
ENCODING 316
SWIDTH 583 0
DWIDTH 11 0
BBX 10 20 0 -7
BITMAP
2466420000
37AA640000
37AA640000
37AA640000
37AA640000
37AA640000
37AA640000
37AA640000
37AA640000
37AA663332
37AA697776
37AA6BAAA9
37AA6BAAA9
0000000000
0002577000
0003699000
0002599000
000029A000
000293A000
0002992000
ENDCHAR
STARTCHAR Lcaron
ENCODING 317
SWIDTH 856 0
DWIDTH 15 0
BBX 15 16 0 0
BITMAP
0000000000011120
24553200000568A0
37AA6400000568A0
37AA6400000238A0
37AA6400000294A0
37AA640000025950
37AA640000037300
37AA640000000000
37AA640000000000
37AA640000000000
37AA640000000000
37AA640000000000
37AA653333100000
37AA697777200000
37AA6BAAAA300000
37AA6BAAAA300000
ENDCHAR
STARTCHAR lcaron
ENCODING 318
SWIDTH 584 0
DWIDTH 11 0
BBX 10 14 0 0
BITMAP
0000001112
256643667A
37AA64667A
37AA64247A
37AA643A49
37AA642494
37AA643720
37AA640000
37AA640000
37AA640000
37AA663332
37AA697777
37AA6BAAA9
37AA6BAAA9
ENDCHAR
STARTCHAR Ldot
ENCODING 319
SWIDTH 604 0
DWIDTH 11 0
BBX 11 15 0 0
BITMAP
245532000000
37AA64000000
37AA64000000
37AA64000000
37AA64000000
37AA64122100
37AA64588400
37AA64799400
37AA64699400
37AA64000000
37AA64000000
37AA66333310
37AA69777720
37AA6BAAAA30
37AA6BAAAA30
ENDCHAR
STARTCHAR ldot
ENCODING 320
SWIDTH 582 0
DWIDTH 10 0
BBX 10 13 0 0
BITMAP
2566430000
37AA640000
37AA641221
37AA645884
37AA646995
37AA646994
37AA640000
37AA640000
37AA640000
37AA663332
37AA697777
37AA6BAAA9
37AA6BAAA9
ENDCHAR
STARTCHAR Lslash
ENCODING 321
SWIDTH 604 0
DWIDTH 11 0
BBX 13 15 -2 0
BITMAP
00145532000000
00379964000000
00379964000000
00379964032000
00379961971000
00379962992000
17179963493000
15079966400000
27279964000000
29579964000000
00379964000000
00379966333310
00379969777720
0037996BAAAA30
0037996BAAAA30
ENDCHAR
STARTCHAR lslash
ENCODING 322
SWIDTH 581 0
DWIDTH 10 0
BBX 12 13 -2 0
BITMAP
002466420000
003799640000
003799640420
003799619610
003799629920
171799635930
160799664000
263799640000
295799640000
003799663332
003799697776
0037996BAAA9
0037996BAAA9
ENDCHAR
STARTCHAR Nacute
ENCODING 323
SWIDTH 877 0
DWIDTH 16 0
BBX 15 20 0 0
BITMAP
0000000000395000
000000003A85A500
0000003A75A71000
00000014A6000000
0000000100000000
2642652000434550
3E5A859000766AA0
37A75A7400766AA0
3777A67A00766AA0
379A58A580766AA0
37A4A95992766AA0
37A975A75A766AA0
37AA2A66A6856AA0
37AA668A57A46AA0
37AA649599594AA0
37AA641A85A83AA0
37AA64066A66A6A0
37AA6400A57A66A0
37AA640038958AB0
37AA6400085985E0
ENDCHAR
STARTCHAR nacute
ENCODING 324
SWIDTH 787 0
DWIDTH 14 0
BBX 14 18 0 0
BITMAP
00000000029700
00000002995970
000002985A8100
0000003A710000
00000001000000
28537520006643
3E5A85A0009855
37B75A74009855
3786A66A009855
379A57A6609855
37A48A58A19855
37A89599589855
37AA1A85A96855
37AA075A75A855
37AA00A66B7955
37AA0057A66A55
37AA000A58A5B5
37AA00039958A5
ENDCHAR
STARTCHAR Ncommaaccent
ENCODING 325
SWIDTH 877 0
DWIDTH 16 0
BBX 15 22 0 -7
BITMAP
2642652000434550
3E5A859000766AA0
37A75A7400766AA0
3777A67A00766AA0
379A58A580766AA0
37A4A95992766AA0
37A975A75A766AA0
37AA2A66A6856AA0
37AA668A57A46AA0
37AA649599594AA0
37AA641A85A83AA0
37AA64066A66A6A0
37AA6400A57A66A0
37AA640038958AB0
37AA6400085985E0
0000000000000000
0000007545000000
0000009657000000
0000008657000000
0000000957000000
0000007683000000
0000006A60000000
ENDCHAR
STARTCHAR ncommaaccent
ENCODING 326
SWIDTH 787 0
DWIDTH 14 0
BBX 14 20 0 -7
BITMAP
28537520006643
3E5A85A0009855
37B75A74009855
3786A66A009855
379A57A6609855
37A48A58A19855
37A89599589855
37AA1A85A96855
37AA075A75A855
37AA00A66B7955
37AA0057A66A55
37AA000A58A5B5
37AA00039958A5
00000000000000
00000544700000
00000856900000
00000656900000
00000065900000
00000575600000
000005A8000000
ENDCHAR
STARTCHAR Ncaron
ENCODING 327
SWIDTH 877 0
DWIDTH 16 0
BBX 15 21 0 0
BITMAP
0000084574500000
00000567A9100000
000000A56A000000
0000008B64000000
0000002450000000
0000000000000000
2642652000434550
3E5A859000766AA0
37A75A7400766AA0
3777A67A00766AA0
379A58A580766AA0
37A4A95992766AA0
37A975A75A766AA0
37AA2A66A6856AA0
37AA668A57A46AA0
37AA649599594AA0
37AA641A85A83AA0
37AA64066A66A6A0
37AA6400A57A66A0
37AA640038958AB0
37AA6400085985E0
ENDCHAR
STARTCHAR ncaron
ENCODING 328
SWIDTH 787 0
DWIDTH 14 0
BBX 14 19 0 0
BITMAP
00006475480000
0000287A640000
00000A38A00000
000005D5700000
00000063100000
00000000000000
28537520006643
3E5A85A0009855
37B75A74009855
3786A66A009855
379A57A6609855
37A48A58A19855
37A89599589855
37AA1A85A96855
37AA075A75A855
37AA00A66B7955
37AA0057A66A55
37AA000A58A5B5
37AA00039958A5
ENDCHAR
STARTCHAR Eng
ENCODING 330
SWIDTH 874 0
DWIDTH 16 0
BBX 15 21 0 -6
BITMAP
1642642000433550
3E5A85A000855990
37B66A6600855990
3768A58A10855990
37995995A0855990
3793A75A75855990
379956A57A855990
37991A5895855990
379965A85A855990
37996475A6855990
3799640A57855990
3799640399855990
3799640085855990
379964001A855990
3799640003855990
0000000000A65890
000000007A6A6590
0000000068A4A740
00000000457A5900
0000000046589000
0000000079830000
ENDCHAR
STARTCHAR eng
ENCODING 331
SWIDTH 691 0
DWIDTH 12 0
BBX 12 18 0 -5
BITMAP
285375205446
3E5A85908559
37B75A748559
3786A66A8559
379A57A6A559
37A48A589559
37A895999559
37AA1A85A559
37AA075A8559
37AA00A6A559
37AA00479559
37AA000A9559
37AA00029559
000000009559
000000059857
000000067892
000000095850
000000099300
ENDCHAR
STARTCHAR Omacron
ENCODING 332
SWIDTH 933 0
DWIDTH 17 0
BBX 17 17 0 -1
BITMAP
000000012100000000
000029A878A8100000
000795999985A40000
007687589859785000
04895A65658967A200
0A66A4A64695985900
28A75A000019759A00
658A72000005599730
756990000002799540
657991000003699630
46995600000957A810
0A8598600186A56A00
075A6859994A5A7500
01A5A5A98A94A59000
002A499556985A1000
00018955556A700000
000001689851000000
ENDCHAR
STARTCHAR omacron
ENCODING 333
SWIDTH 833 0
DWIDTH 15 0
BBX 15 15 0 -1
BITMAP
0000003430000000
000299767A810000
004A59A9A95A2000
02A6959995A5A100
0A58875758795900
28A66A6379759910
658A74000659A640
7569900001898660
75798100037A9650
46A84A102A57A820
0A75A49994A66A00
057A599898598300
00868A656A776000
0006A65556A40000
0000158984000000
ENDCHAR
STARTCHAR Obreve
ENCODING 334
SWIDTH 933 0
DWIDTH 17 0
BBX 17 20 0 -1
BITMAP
000001210220000000
000001988790000000
000000387820000000
000000012100000000
000029A878A8100000
000795999985A40000
007687589859785000
04895A65658967A200
0A66A4A64695985900
28A75A000019759A00
658A72000005599730
756990000002799540
657991000003699630
46995600000957A810
0A8598600186A56A00
075A6859994A5A7500
01A5A5A98A94A59000
002A499556985A1000
00018955556A700000
000001689851000000
ENDCHAR
STARTCHAR obreve
ENCODING 335
SWIDTH 833 0
DWIDTH 15 0
BBX 15 18 0 -1
BITMAP
0000121022000000
0000198889000000
0000038782000000
0000003430000000
000299767A810000
004A59A9A95A2000
02A6959995A5A100
0A58875758795900
28A66A6379759910
658A74000659A640
7569900001898660
75798100037A9650
46A84A102A57A820
0A75A49994A66A00
057A599898598300
00868A656A776000
0006A65556A40000
0000158984000000
ENDCHAR
STARTCHAR Ohungarumlaut
ENCODING 336
SWIDTH 933 0
DWIDTH 17 0
BBX 18 21 0 -1
BITMAP
000000028800004A30
0000029959705A76A3
00019959814A66A500
00003A810025A50000
000001012101000000
000029A878A8100000
000795999985A40000
007687589859785000
04895A65658967A200
0A66A4A64695985900
28A75A000019759A00
658A72000005599730
756990000002799540
657991000003699630
46995600000957A810
0A8598600186A56A00
075A6859994A5A7500
01A5A5A98A94A59000
002A499556985A1000
00018955556A700000
000001689851000000
ENDCHAR
STARTCHAR ohungarumlaut
ENCODING 337
SWIDTH 833 0
DWIDTH 15 0
BBX 17 19 0 -1
BITMAP
00000018800004A400
000028959804A76A40
0019959824A76A6000
00039810015A500000
000010343010000000
000299767A81000000
004A59A9A95A200000
02A6959995A5A10000
0A5887575879590000
28A66A637975991000
658A74000659A64000
756990000189866000
75798100037A965000
46A84A102A57A82000
0A75A49994A66A0000
057A59989859830000
00868A656A77600000
0006A65556A4000000
000015898400000000
ENDCHAR
STARTCHAR OE
ENCODING 338
SWIDTH 1317 0
DWIDTH 24 0
BBX 23 17 0 -1
BITMAP
000000012100000000000000
000029A878A8155388888880
000795999A85899586666660
008687589849699586666660
04795A6565884995B9999990
0A66A5A54795899540000000
27A759000019499540000000
658A820000064995B9970000
756AA00000037995B9970000
757A90000004699585540000
469956000009399584430000
0A8598600186999540000000
085A6859994A499563333330
01A595A99A95999597777770
002A499556A84995BAAAAAA0
00018955555A6995BAAAAAA0
000001689851000000000000
ENDCHAR
STARTCHAR oe
ENCODING 339
SWIDTH 1174 0
DWIDTH 21 0
BBX 21 15 0 -1
BITMAP
0000003420000000000000
000299767A7654A9999940
004A59A9A9598596666630
02A6939A92898595555520
0A588647387985A7777730
28A55A6379698560000000
658A7400065985CAAAAA10
75699000018985CAAAAA10
7579810003798596666600
46A80A102A298584444400
0A73A09991A98573333310
057A2998A83985A7777730
00868A636A7985CAAAAA40
0006A655569985CAAAAA40
0000158984000000000000
ENDCHAR
STARTCHAR Racute
ENCODING 340
SWIDTH 843 0
DWIDTH 15 0
BBX 15 20 0 0
BITMAP
0000000288000000
0000029959700000
0001995981000000
00003A8100000000
0000010000000000
2888888888610000
3756666666597000
37B5666666996700
37AA999999A59920
37AA4AAAAA5A7570
37AA640000A95690
37AA6788898A6680
37AA66666696B750
37AA6666665A5B00
37AA68AAAA75B200
37AA68AAABCB4000
37AA6400A9769000
37AA64009669A000
37AA640047AA6400
37AA64000A966900
ENDCHAR
STARTCHAR Rcommaaccent
ENCODING 342
SWIDTH 843 0
DWIDTH 15 0
BBX 15 22 0 -7
BITMAP
2888888888610000
3756666666597000
37B5666666996700
37AA999999A59920
37AA4AAAAA5A7570
37AA640000A95690
37AA6788898A6680
37AA66666696B750
37AA6666665A5B00
37AA68AAAA75B200
37AA68AAABCB4000
37AA6400A9769000
37AA64009669A000
37AA640047AA6400
37AA64000A966900
0000000000000000
0000034770000000
0000045990000000
0000034990000000
00000028A0000000
0000029390000000
000002A910000000
ENDCHAR
STARTCHAR rcommaaccent
ENCODING 343
SWIDTH 831 0
DWIDTH 15 0
BBX 15 20 0 -7
BITMAP
2A99999999830000
3756666666588000
37B55555557A6700
37AA888888A59910
37AA5A999A59A650
37AA6655568A9650
37AA66555577A730
37AA679998595B00
37AA68999AA5B300
37AA678888AD2000
37AA642689A82000
37AA6401AA768000
37AA64009669A000
0000000000000000
0000064460000000
0000095580000000
0000075580000000
0000007580000000
0000067650000000
000006A700000000
ENDCHAR
STARTCHAR Rcaron
ENCODING 344
SWIDTH 843 0
DWIDTH 15 0
BBX 15 21 0 0
BITMAP
0054755800000000
00197A6500000000
000938A000000000
0004D58000000000
0000632000000000
0000000000000000
2888888888610000
3756666666597000
37B5666666996700
37AA999999A59920
37AA4AAAAA5A7570
37AA640000A95690
37AA6788898A6680
37AA66666696B750
37AA6666665A5B00
37AA68AAAA75B200
37AA68AAABCB4000
37AA6400A9769000
37AA64009669A000
37AA640047AA6400
37AA64000A966900
ENDCHAR
STARTCHAR rcaron
ENCODING 345
SWIDTH 831 0
DWIDTH 15 0
BBX 15 19 0 0
BITMAP
0000087186200000
000009577A000000
0000037956000000
000000A991000000
0000004350000000
0000000000000000
2A99999999830000
3756666666588000
37B55555557A6700
37AA888888A59910
37AA5A999A59A650
37AA6655568A9650
37AA66555577A730
37AA679998595B00
37AA68999AA5B300
37AA678888AD2000
37AA642689A82000
37AA6401AA768000
37AA64009669A000
ENDCHAR
STARTCHAR Sacute
ENCODING 346
SWIDTH 682 0
DWIDTH 12 0
BBX 12 21 0 -1
BITMAP
000000001890
00000018A599
000018959920
000002992000
000002310000
0028A778A930
03A59A999587
0A6958985770
46B775666700
668A85455000
668A79763000
37B686668A10
0A5A5668B5A0
02B58AAA5B64
0018AAA5A659
0000000A866A
00149995A658
035A999A5B64
45996568B5A0
079655558910
001589973000
ENDCHAR
STARTCHAR sacute
ENCODING 347
SWIDTH 683 0
DWIDTH 12 0
BBX 12 19 0 -1
BITMAP
000000001890
00000018A599
000018959920
000002992000
000000100000
0028AAAAA610
04A489A965A5
1A7956665972
659974358700
758A10000000
47A59AAAA500
0A58AAA867A0
018A86666A66
00003445A659
00450001A66A
04769A995B57
4859A99A85A0
03997657A810
000034430000
ENDCHAR
STARTCHAR Scircumflex
ENCODING 348
SWIDTH 682 0
DWIDTH 12 0
BBX 12 22 0 -1
BITMAP
00001C540000
000079690000
0000A2A91000
000479957000
000323224000
000002210000
0028A778A930
03A59A999587
0A6958985770
46B775666700
668A85455000
668A79763000
37B686668A10
0A5A5668B5A0
02B58AAA5B64
0018AAA5A659
0000000A866A
00149995A658
035A999A5B64
45996568B5A0
079655558910
001589973000
ENDCHAR
STARTCHAR scircumflex
ENCODING 349
SWIDTH 683 0
DWIDTH 12 0
BBX 12 20 0 -1
BITMAP
00001C540000
0000696A0000
0000A2A82000
00037A857000
000323234000
000000000000
0028AAAAA610
04A489A965A5
1A7956665972
659974358700
758A10000000
47A59AAAA500
0A58AAA867A0
018A86666A66
00003445A659
00450001A66A
04769A995B57
4859A99A85A0
03997657A810
000034430000
ENDCHAR
STARTCHAR Scedilla
ENCODING 350
SWIDTH 682 0
DWIDTH 12 0
BBX 12 22 0 -6
BITMAP
000002210000
0028A778A930
03A59A999587
0A6958985770
46B775666700
668A85455000
668A79763000
37B686668A10
0A5A5668B5A0
02B58AAA5B64
0018AAA5A659
0000000A866A
00149995A658
035A999A5B64
45996568B5A0
079656658910
0015CFF83000
000965A10000
000A97600000
0009A3200000
000A37800000
00029AA10000
ENDCHAR
STARTCHAR scedilla
ENCODING 351
SWIDTH 683 0
DWIDTH 12 0
BBX 12 19 0 -6
BITMAP
0028AAAAA610
04A489A965A5
1A7956665972
659974358700
758A10000000
47A59AAAA500
0A58AAA867A0
018A86666A66
00003445A659
00450001A66A
04769A995B57
4859A99A85A0
03997667A810
00007FC40000
000965A10000
000A97610000
000993200000
000A37810000
00029AA10000
ENDCHAR
STARTCHAR Scaron
ENCODING 352
SWIDTH 682 0
DWIDTH 12 0
BBX 12 22 0 -1
BITMAP
000458368000
0000A7957000
000083A91000
00002D590000
000006220000
000002210000
0028A778A930
03A59A999587
0A6958985770
46B775666700
668A85455000
668A79763000
37B686668A10
0A5A5668B5A0
02B58AAA5B64
0018AAA5A659
0000000A866A
00149995A658
035A999A5B64
45996568B5A0
079655558910
001589973000
ENDCHAR
STARTCHAR scaron
ENCODING 353
SWIDTH 683 0
DWIDTH 12 0
BBX 12 20 0 -1
BITMAP
000458368000
0000A7957000
000083A91000
00002D590000
000006220000
000000000000
0028AAAAA610
04A489A965A5
1A7956665972
659974358700
758A10000000
47A59AAAA500
0A58AAA867A0
018A86666A66
00003445A659
00450001A66A
04769A995B57
4859A99A85A0
03997657A810
000034430000
ENDCHAR
STARTCHAR Tcommaaccent
ENCODING 354
SWIDTH 591 0
DWIDTH 11 0
BBX 10 21 0 -6
BITMAP
4888888888
3666666666
3666666666
499DDCBC99
000AA66800
000AA66800
000AA66800
000AA66800
000AA66800
000AA66800
000AA66800
000AA66800
000AA66800
000AA66800
000AA66800
0003C64000
0077584000
00A6861000
0098421000
0094682000
0018AA2000
ENDCHAR
STARTCHAR tcommaaccent
ENCODING 355
SWIDTH 588 0
DWIDTH 11 0
BBX 10 19 0 -6
BITMAP
4999999999
3666666666
3555555555
4889988988
0009965700
0009965700
0009965700
0009965700
0009965700
0009965700
0009965700
0009965700
0009A66700
0003C64000
0077584000
00A7861000
0098420000
0094682000
0018AA2000
ENDCHAR
STARTCHAR Tcaron
ENCODING 356
SWIDTH 591 0
DWIDTH 11 0
BBX 10 21 0 0
BITMAP
0035836900
000A795700
00083A9100
0002D59000
0000623000
0000000000
4888888888
3666666666
3666666666
499DDCBC99
000AA66800
000AA66800
000AA66800
000AA66800
000AA66800
000AA66800
000AA66800
000AA66800
000AA66800
000AA66800
000AA66800
ENDCHAR
STARTCHAR tcaron
ENCODING 357
SWIDTH 842 0
DWIDTH 15 0
BBX 15 14 0 0
BITMAP
0000000000021110
49999999990A6680
36666666660A6680
3555555555036580
488998898804B470
0009965700035A20
0009965700056100
0009965700000000
0009965700000000
0009965700000000
0009965700000000
0009965700000000
0009965700000000
0009965700000000
ENDCHAR
STARTCHAR Tbar
ENCODING 358
SWIDTH 591 0
DWIDTH 11 0
BBX 10 15 0 0
BITMAP
4888888888
3666666666
3666666666
499DDCBC99
000AA66800
000AA66800
497AA66699
497AA66699
264AA66865
243AA66844
000AA66800
000AA66800
000AA66800
000AA66800
000AA66800
ENDCHAR
STARTCHAR tbar
ENCODING 359
SWIDTH 588 0
DWIDTH 11 0
BBX 10 13 0 0
BITMAP
4999999999
3666666666
3555555555
4889988988
0009965700
0009965700
3859965687
2549965655
2649965665
4979965999
0009965700
0009965700
0009965700
ENDCHAR
STARTCHAR Utilde
ENCODING 360
SWIDTH 905 0
DWIDTH 16 0
BBX 16 21 0 -1
BITMAP
0000244444122200
0008866666295600
00197A9999959200
003591AAAAAA5000
0000000000000000
2355410000055334
45997200000AA668
45997200000AA668
45997200000AA668
45997200000AA668
45997200000AA668
45997200000AA668
45997200000AA668
46997300000AA667
27A956000038A856
0A957A4002B57A73
08597679985A76A0
01A695A99A778830
003A5A8667A68600
0002A855557A3000
0000027997300000
ENDCHAR
STARTCHAR utilde
ENCODING 361
SWIDTH 795 0
DWIDTH 14 0
BBX 14 19 0 -1
BITMAP
00024444422220
00786666629570
0197A999995830
03691AAAAAA500
00000000000000
34665200066445
469A7200099558
469A7200099558
469A7200099558
469A7200099558
469A7200099558
469A7200099558
46AA730009A658
28A8590066A856
0A75B599695A82
066A5AA9A5A590
009599667A5B10
00079555589100
00001699720000
ENDCHAR
STARTCHAR Umacron
ENCODING 362
SWIDTH 905 0
DWIDTH 16 0
BBX 16 16 0 -1
BITMAP
2355410000055334
45997200000AA668
45997200000AA668
45997200000AA668
45997200000AA668
45997200000AA668
45997200000AA668
45997200000AA668
46997300000AA667
27A956000038A856
0A957A4002B57A73
08597679985A76A0
01A695A99A778830
003A5A8667A68600
0002A855557A3000
0000027997300000
ENDCHAR
STARTCHAR umacron
ENCODING 363
SWIDTH 795 0
DWIDTH 14 0
BBX 14 14 0 -1
BITMAP
34665200066445
469A7200099558
469A7200099558
469A7200099558
469A7200099558
469A7200099558
469A7200099558
46AA730009A658
28A8590066A856
0A75B599695A82
066A5AA9A5A590
009599667A5B10
00079555589100
00001699720000
ENDCHAR
STARTCHAR Ubreve
ENCODING 364
SWIDTH 905 0
DWIDTH 16 0
BBX 16 20 0 -1
BITMAP
0000022002200000
0000057887700000
0000006777000000
0000000000000000
2355410000055334
45997200000AA668
45997200000AA668
45997200000AA668
45997200000AA668
45997200000AA668
45997200000AA668
45997200000AA668
46997300000AA667
27A956000038A856
0A957A4002B57A73
08597679985A76A0
01A695A99A778830
003A5A8667A68600
0002A855557A3000
0000027997300000
ENDCHAR
STARTCHAR ubreve
ENCODING 365
SWIDTH 795 0
DWIDTH 14 0
BBX 14 18 0 -1
BITMAP
00002200220000
00004788770000
00000687700000
00000000000000
34665200066445
469A7200099558
469A7200099558
469A7200099558
469A7200099558
469A7200099558
469A7200099558
46AA730009A658
28A8590066A856
0A75B599695A82
066A5AA9A5A590
009599667A5B10
00079555589100
00001699720000
ENDCHAR
STARTCHAR Uring
ENCODING 366
SWIDTH 905 0
DWIDTH 16 0
BBX 16 22 0 -1
BITMAP
0000001773000000
0000009779200000
0000038518700000
0000028987500000
0000005887000000
0000000000000000
2355410000055334
45997200000AA668
45997200000AA668
45997200000AA668
45997200000AA668
45997200000AA668
45997200000AA668
45997200000AA668
46997300000AA667
27A956000038A856
0A957A4002B57A73
08597679985A76A0
01A695A99A778830
003A5A8667A68600
0002A855557A3000
0000027997300000
ENDCHAR
STARTCHAR uring
ENCODING 367
SWIDTH 795 0
DWIDTH 14 0
BBX 14 20 0 -1
BITMAP
00000177300000
00000977920000
00003851870000
00001897750000
00000588800000
00000000000000
34665200066445
469A7200099558
469A7200099558
469A7200099558
469A7200099558
469A7200099558
469A7200099558
46AA730009A658
28A8590066A856
0A75B599695A82
066A5AA9A5A590
009599667A5B10
00079555589100
00001699720000
ENDCHAR
STARTCHAR Uhungarumlaut
ENCODING 368
SWIDTH 905 0
DWIDTH 16 0
BBX 18 21 0 -1
BITMAP
00000003A500017A10
000004A75A417A58A1
0003A76A617A58A300
00014A600028930000
000010000001000000
235541000005533400
45997200000AA66800
45997200000AA66800
45997200000AA66800
45997200000AA66800
45997200000AA66800
45997200000AA66800
45997200000AA66800
46997300000AA66700
27A956000038A85600
0A957A4002B57A7300
08597679985A76A000
01A695A99A77883000
003A5A8667A6860000
0002A855557A300000
000002799730000000
ENDCHAR
STARTCHAR uhungarumlaut
ENCODING 369
SWIDTH 795 0
DWIDTH 14 0
BBX 17 19 0 -1
BITMAP
0000003A500006A100
00003A85A517A57A10
003A75A617A58A3000
0014A6000289300000
000100000010000000
346652000664450000
469A72000995580000
469A72000995580000
469A72000995580000
469A72000995580000
469A72000995580000
469A72000995580000
46AA730009A6580000
28A8590066A8560000
0A75B599695A820000
066A5AA9A5A5900000
009599667A5B100000
000795555891000000
000016997200000000
ENDCHAR
STARTCHAR Uogonek
ENCODING 370
SWIDTH 905 0
DWIDTH 16 0
BBX 16 22 0 -7
BITMAP
2355410000055334
45997200000AA668
45997200000AA668
45997200000AA668
45997200000AA668
45997200000AA668
45997200000AA668
45997200000AA668
46997300000AA667
27A956000038A856
0A957A4002B57A73
08597679985A76A0
01A695A99A778830
003A5A8667A68600
0002A855557A3000
0000029FF7300000
000002A430000000
0000074A30000000
0000085540000000
0000085590000000
0000085590000000
0000000010000000
ENDCHAR
STARTCHAR uogonek
ENCODING 371
SWIDTH 794 0
DWIDTH 14 0
BBX 14 20 0 -7
BITMAP
34665100066445
469A8200099558
469A8200099558
469A8200099558
469A8200099558
469A8200099558
469A8200099558
469A730009A658
37A9590066A856
0A85A599695A82
066A5A99A5A590
009599668A5B10
00089555589100
000019FE720000
00004943000000
00009492000000
00009644000000
00009658000000
00009658000000
00001000000000
ENDCHAR
STARTCHAR Ycircumflex
ENCODING 374
SWIDTH 789 0
DWIDTH 14 0
BBX 14 21 0 0
BITMAP
000001C5400000
00000795900000
00000A2A910000
00004799570000
00003232240000
00000000000000
53355000054345
37996400189866
09757900766990
04699641997560
00975797579910
00469949976700
00098696798100
00056898668000
00009668981000
00006B86680000
00002899550000
00002899550000
00002899550000
00002899550000
00002899550000
ENDCHAR
STARTCHAR ycircumflex
ENCODING 375
SWIDTH 733 0
DWIDTH 13 0
BBX 13 19 0 0
BITMAP
00000769000000
00000AA8200000
00005685800000
0000A659A00000
00004404320000
00000000000000
54466000644560
27986601897660
09669917669900
027A7579975700
00856975799100
0027A499767000
00085967981000
00028986680000
00009689810000
00007569900000
00007569900000
00007569900000
00007569900000
ENDCHAR
STARTCHAR Ydieresis
ENCODING 376
SWIDTH 789 0
DWIDTH 14 0
BBX 14 19 0 0
BITMAP
00122200321100
00379900A86600
00257700764400
00000000000000
53355000054345
37996400189866
09757900766990
04699641997560
00975797579910
00469949976700
00098696798100
00056898668000
00009668981000
00006B86680000
00002899550000
00002899550000
00002899550000
00002899550000
00002899550000
ENDCHAR
STARTCHAR Zacute
ENCODING 377
SWIDTH 854 0
DWIDTH 15 0
BBX 15 20 0 0
BITMAP
00000000004A3000
000000005A66A300
0000005A66A50000
00000025A5000000
0000000100000000
3888888888888850
2666666666644B40
2666666665579670
3999999994A69740
3AAAAA92795A5A40
0000002A69779670
00000695A5A59600
0002A697796A2000
00695A5A59600000
1A687796A2000000
25A5A69647777740
37796A3366666640
1A69716777777740
26A38AAAAAAAAA60
4EAAAAAAAAAAAA60
ENDCHAR
STARTCHAR zacute
ENCODING 378
SWIDTH 714 0
DWIDTH 13 0
BBX 13 18 0 0
BITMAP
0000000006A200
00000006A67A10
000006A57A4000
0000027A300000
00000010000000
29999986374320
1666664A84A730
155555A4994800
2888897B489100
00001B76B56000
000094A75A0000
00048A4A830000
000B57A4800000
0075B67A100000
02A85B66333300
0A4994A4777710
57A5895AAAAA20
466B589AAAAA20
ENDCHAR
STARTCHAR Zdotaccent
ENCODING 379
SWIDTH 854 0
DWIDTH 15 0
BBX 15 20 0 0
BITMAP
0000008882000000
0000005661000000
0000005661000000
0000008992000000
0000000000000000
3888888888888850
2666666666644B40
2666666665579670
3999999994A69740
3AAAAA92795A5A40
0000002A69779670
00000695A5A59600
0002A697796A2000
00695A5A59600000
1A687796A2000000
25A5A69647777740
37796A3366666640
1A69716777777740
26A38AAAAAAAAA60
4EAAAAAAAAAAAA60
ENDCHAR
STARTCHAR zdotaccent
ENCODING 380
SWIDTH 714 0
DWIDTH 13 0
BBX 13 18 0 0
BITMAP
00001888100000
00000666100000
00000666100000
00001999100000
00000000000000
29999986374320
1666664A84A730
155555A4994800
2888897B489100
00001B76B56000
000094A75A0000
00048A4A830000
000B57A4800000
0075B67A100000
02A85B66333300
0A4994A4777710
57A5895AAAAA20
466B589AAAAA20
ENDCHAR
STARTCHAR Zcaron
ENCODING 381
SWIDTH 854 0
DWIDTH 15 0
BBX 15 21 0 0
BITMAP
0000087296300000
000008578A000000
0000028957000000
000000AA91000000
0000003350000000
0000000000000000
3888888888888850
2666666666644B40
2666666665579670
3999999994A69740
3AAAAA92795A5A40
0000002A69779670
00000695A5A59600
0002A697796A2000
00695A5A59600000
1A687796A2000000
25A5A69647777740
37796A3366666640
1A69716777777740
26A38AAAAAAAAA60
4EAAAAAAAAAAAA60
ENDCHAR
STARTCHAR zcaron
ENCODING 382
SWIDTH 714 0
DWIDTH 13 0
BBX 13 19 0 0
BITMAP
00018818710000
00009676A00000
000046A6500000
00000B8A000000
00000424000000
00000000000000
29999986374320
1666664A84A730
155555A4994800
2888897B489100
00001B76B56000
000094A75A0000
00048A4A830000
000B57A4800000
0075B67A100000
02A85B66333300
0A4994A4777710
57A5895AAAAA20
466B589AAAAA20
ENDCHAR
STARTCHAR florin
ENCODING 402
SWIDTH 388 0
DWIDTH 7 0
BBX 7 18 0 -2
BITMAP
00001310
00089720
00859930
00A94930
01898100
13899210
36899520
47899730
37899630
02899100
02899100
02899100
02899100
02799100
4A48A000
4A958000
26990000
14100000
ENDCHAR
STARTCHAR uni01C4
ENCODING 452
SWIDTH 1740 0
DWIDTH 31 0
BBX 31 21 0 0
BITMAP
00000000000000000000087296300000
0000000000000000000008577A000000
00000000000000000000028957000000
0000000000000000000000AA91000000
00000000000000000000003350000000
00000000000000000000000000000000
28888888874000003888888888888850
37566666656A40002666666666644B40
37B5666667A685002666666665579670
37AA99999A8679203999999994A59740
37AA5AAAA95985903AAAAA92795A5A40
37AA640002A759910000002A69779670
37AA640000659A6300000695A5A59600
37AA64000036A9550002A697796A2000
37AA64000046AA5400695A5A59600000
37AA640000957A821A697796A2000000
37AA69777A6B57A025A5A69647777740
37AA466665A5A65047796A3366666640
37A57777765A5A002A69616777777740
37AAAAAAA966A10026A38AAAAAAAAA60
3CAAAAAAAAA500004EAAAAAAAAAAAA60
ENDCHAR
STARTCHAR uni01C5
ENCODING 453
SWIDTH 1601 0
DWIDTH 29 0
BBX 29 19 0 0
BITMAP
000000000000000000017818810000
00000000000000000000A676A00000
0000000000000000000056A6400000
000000000000000000000B8A000000
288888888740000000000424000000
37566666656A400000000000000000
37B5666667A6850039999986275320
37AA99999A8679202666664984A730
37AA5AAAA9598590155555A5994800
37AA640002A759912888896B589100
37AA640000659A6300001B75B56000
37AA64000036A955000094A75A0000
37AA64000046AA5400048A49830000
37AA640000957A82000B57A4800000
37AA69777A6B57A00085B66A100000
37AA466665A5A65002A85A76333300
37A57777765A5A000A4994A4777710
37AAAAAAA966A10056B58A5AAAAA20
3CAAAAAAAAA50000566B589AAAAA20
ENDCHAR
STARTCHAR Scommaaccent
ENCODING 536
SWIDTH 682 0
DWIDTH 12 0
BBX 12 23 0 -7
BITMAP
000002210000
0028A778A930
03A59A999587
0A6958985770
46B775666700
668A85455000
668A79763000
37B686668A10
0A5A5668B5A0
02B58AAA5B64
0018AAA5A659
0000000A866A
00149995A658
035A999A5B64
45996568B5A0
079655558910
001589973000
000064460000
000095590000
000075590000
000007580000
000057650000
00005A700000
ENDCHAR
STARTCHAR scommaaccent
ENCODING 537
SWIDTH 683 0
DWIDTH 12 0
BBX 12 20 0 -7
BITMAP
0028AAAAA610
04A489A965A5
1A7956665972
659974358700
758A10000000
47A59AAAA500
0A58AAA867A0
018A86666A66
00003445A659
00450001A66A
04769A995B57
4859A99A85A0
03997657A810
000034430000
000064470000
000085590000
000075590000
000007590000
000057650000
00005A700000
ENDCHAR
STARTCHAR uni021A
ENCODING 538
SWIDTH 591 0
DWIDTH 11 0
BBX 10 22 0 -7
BITMAP
4888888888
3666666666
3666666666
499DDCBC99
000AA66800
000AA66800
000AA66800
000AA66800
000AA66800
000AA66800
000AA66800
000AA66800
000AA66800
000AA66800
000AA66800
0000000000
0003477000
0004599000
0003499000
000038A000
0003939000
0003A91000
ENDCHAR
STARTCHAR uni021B
ENCODING 539
SWIDTH 588 0
DWIDTH 11 0
BBX 10 20 0 -7
BITMAP
4999999999
3666666666
3555555555
4889988988
0009965700
0009965700
0009965700
0009965700
0009965700
0009965700
0009965700
0009965700
0009965700
0000000000
0003467000
0004599000
0004499000
000038A000
0003939000
0003A91000
ENDCHAR
STARTCHAR uni0237
ENCODING 567
SWIDTH 393 0
DWIDTH 7 0
BBX 7 15 0 -2
BITMAP
01566430
028A9640
028A9640
028A9640
028A9640
028A9640
028A9640
028A9640
028A9640
047A9640
5A66A820
38976A00
35979300
575A4000
6A710000
ENDCHAR
STARTCHAR circumflex
ENCODING 710
SWIDTH 376 0
DWIDTH 7 0
BBX 6 5 0 13
BITMAP
00A470
0399A0
083A65
0A956A
234044
ENDCHAR
STARTCHAR caron
ENCODING 711
SWIDTH 362 0
DWIDTH 7 0
BBX 6 5 0 13
BITMAP
458368
0A7957
083A91
02D590
006230
ENDCHAR
STARTCHAR breve
ENCODING 728
SWIDTH 360 0
DWIDTH 7 0
BBX 6 3 0 14
BITMAP
220022
388878
058781
ENDCHAR
STARTCHAR dotaccent
ENCODING 729
SWIDTH 255 0
DWIDTH 5 0
BBX 4 4 0 11
BITMAP
2888
2665
2665
3998
ENDCHAR
STARTCHAR ring
ENCODING 730
SWIDTH 330 0
DWIDTH 6 0
BBX 6 5 0 14
BITMAP
027720
197791
583385
388883
078860
ENDCHAR
STARTCHAR ogonek
ENCODING 731
SWIDTH 250 0
DWIDTH 5 0
BBX 4 7 0 -6
BITMAP
0177
1A44
45B4
5584
5589
5589
0001
ENDCHAR
STARTCHAR tilde
ENCODING 732
SWIDTH 665 0
DWIDTH 12 0
BBX 12 4 0 10
BITMAP
002444441222
097666662A55
3789999994A1
4582AAAAAA40
ENDCHAR
STARTCHAR hungarumlaut
ENCODING 733
SWIDTH 837 0
DWIDTH 15 0
BBX 15 5 0 12
BITMAP
000028800004A300
0029959705A76A30
19959814A66A5000
03A810025A500000
0010000010000000
ENDCHAR
STARTCHAR uni0307
ENCODING 775
SWIDTH 260 0
DWIDTH 5 0
BBX 4 4 0 7
BITMAP
0222
2887
2999
2998
ENDCHAR
STARTCHAR uni030F
ENCODING 783
SWIDTH 554 0
DWIDTH 10 0
BBX 10 7 0 13
BITMAP
2230034000
28A00A6400
0A64065900
056901A910
00A9109570
00857037A0
0025700752
ENDCHAR
STARTCHAR uni0311
ENCODING 785
SWIDTH 375 0
DWIDTH 7 0
BBX 6 3 0 14
BITMAP
002410
078885
278487
ENDCHAR
STARTCHAR uni0326
ENCODING 806
SWIDTH 274 0
DWIDTH 5 0
BBX 4 6 0 -7
BITMAP
1576
2899
2699
0199
193A
19A2
ENDCHAR
STARTCHAR Omega
ENCODING 937
SWIDTH 92 0
DWIDTH 2 0
BBX 1 1 0 0
BITMAP
00
ENDCHAR
STARTCHAR uni00B5.dup2
ENCODING 956
SWIDTH 802 0
DWIDTH 14 0
BBX 14 15 0 -2
BITMAP
25664300064446
27A964000A767A
27A964000A767A
27A964000A767A
27A964000A767A
27A964000A767A
27A964000A767A
27A964000A766A
27A9640048A659
27A96899877A64
27A96899A795A0
27A966667A5A20
27A9666557A200
27A96799830000
27995400000000
ENDCHAR
STARTCHAR pi
ENCODING 960
SWIDTH 92 0
DWIDTH 2 0
BBX 1 1 0 0
BITMAP
00
ENDCHAR
STARTCHAR endash
ENCODING 8211
SWIDTH 473 0
DWIDTH 9 0
BBX 8 4 0 5
BITMAP
29999997
29999997
15555554
14444443
ENDCHAR
STARTCHAR emdash
ENCODING 8212
SWIDTH 615 0
DWIDTH 11 0
BBX 11 4 0 5
BITMAP
299999999930
299999999930
155555555520
144444444410
ENDCHAR
STARTCHAR quoteleft
ENCODING 8216
SWIDTH 254 0
DWIDTH 5 0
BBX 4 7 0 8
BITMAP
0167
0A54
46A5
5594
5599
5599
1111
ENDCHAR
STARTCHAR quoteright
ENCODING 8217
SWIDTH 251 0
DWIDTH 5 0
BBX 4 7 0 8
BITMAP
2355
469A
459A
0199
3A39
28A2
1100
ENDCHAR
STARTCHAR quotesinglbase
ENCODING 8218
SWIDTH 252 0
DWIDTH 5 0
BBX 4 7 0 -3
BITMAP
1122
569A
569A
239A
295A
2585
2730
ENDCHAR
STARTCHAR quotedblleft
ENCODING 8220
SWIDTH 535 0
DWIDTH 10 0
BBX 9 7 0 8
BITMAP
0167000570
0A5400A550
46A5037A60
5594046A40
5599046990
5599046990
1111011110
ENDCHAR
STARTCHAR quotedblright
ENCODING 8221
SWIDTH 532 0
DWIDTH 10 0
BBX 9 7 0 8
BITMAP
2355024550
469A036AA0
459A036AA0
0199001990
3A3902A3A0
28A2028A30
1100001000
ENDCHAR
STARTCHAR quotedblbase
ENCODING 8222
SWIDTH 533 0
DWIDTH 10 0
BBX 9 7 0 -3
BITMAP
1122011220
569A046990
569A046990
239A012990
295A0195A0
2585015860
2730027300
ENDCHAR
STARTCHAR dagger
ENCODING 8224
SWIDTH 636 0
DWIDTH 11 0
BBX 11 15 0 0
BITMAP
000334550000
000658990000
000658990000
499B58999980
366958996650
366958996650
488B58999880
000658990000
000658990000
000658990000
000658990000
000658990000
000658990000
000658990000
000658990000
ENDCHAR
STARTCHAR daggerdbl
ENCODING 8225
SWIDTH 648 0
DWIDTH 12 0
BBX 11 15 0 0
BITMAP
000235541000
000459972000
000459972000
3AAB5997AAA0
388A59979880
266859977660
266859977660
000459972000
000459972000
3AAB5997AAA0
399B5997A990
266859977660
144759976440
000459972000
000459972000
ENDCHAR
STARTCHAR bullet
ENCODING 8226
SWIDTH 501 0
DWIDTH 9 0
BBX 9 9 0 2
BITMAP
0001320000
01A979A100
0A5AAA5B00
38A101A740
5590008560
46A000A650
0B69696B10
03B565A400
0017872000
ENDCHAR
STARTCHAR ellipsis
ENCODING 8230
SWIDTH 676 0
DWIDTH 12 0
BBX 12 4 0 0
BITMAP
133213322331
277647755773
3AA85AA67AA4
3AA85AA67AA4
ENDCHAR
STARTCHAR perthousand
ENCODING 8240
SWIDTH 447 0
DWIDTH 8 0
BBX 8 17 0 -2
BITMAP
00005335
0000A856
00028A73
000559A0
00095690
000A8560
0028A730
00559A00
00956900
00A85600
028A7200
0659A000
09569000
0A856000
28A72000
659A0000
64470000
ENDCHAR
STARTCHAR guilsinglleft
ENCODING 8249
SWIDTH 465 0
DWIDTH 8 0
BBX 8 9 0 2
BITMAP
00000396
0016A755
29957A73
259957A5
375A9710
3C666596
16A75993
00039954
00000166
ENDCHAR
STARTCHAR guilsinglright
ENCODING 8250
SWIDTH 465 0
DWIDTH 8 0
BBX 8 9 0 2
BITMAP
2A500000
266A8200
15A958A4
29957A63
0048A756
2A7584A8
17A75A93
258A6100
38300000
ENDCHAR
STARTCHAR fraction
ENCODING 8260
SWIDTH 447 0
DWIDTH 8 0
BBX 8 17 0 -2
BITMAP
00005335
0000A856
00028A73
000559A0
00095690
000A8560
0028A730
00559A00
00956900
00A85600
028A7200
0659A000
09569000
0A856000
28A72000
659A0000
64470000
ENDCHAR
STARTCHAR uni2074
ENCODING 8308
SWIDTH 528 0
DWIDTH 10 0
BBX 9 13 0 2
BITMAP
0005256000
000A759000
0066A83000
00B75A0000
056A741100
0B66B09900
3684507700
4AAAAAAA90
4AAAAAAA90
2666666660
2444448840
0000009900
0000001100
ENDCHAR
STARTCHAR Euro
ENCODING 8364
SWIDTH 781 0
DWIDTH 14 0
BBX 14 17 0 -1
BITMAP
00000000122000
0000018A8789A5
00004A58A99A71
00049795899750
001A7798565550
0085995A745740
00A957A2000000
577A9598885000
146AA631111000
587A9689995000
019A6590000000
00A66A68100110
0047A5A5999930
00095B59A89A70
0000968A6557A1
000006A6555565
00000015899730
ENDCHAR
STARTCHAR trademark
ENCODING 8482
SWIDTH 1503 0
DWIDTH 27 0
BBX 27 12 0 3
BITMAP
4888888888152551000000426520
26666666660A9957000000A75E40
266666666609859A1000065A8840
499BBDD99919299580001A75A640
000469A000095959910075999640
000469A0000965A85901A859A640
000469A000096595A9284995A640
000469A00009658A85978589A640
000469A0000965865A848A1AA640
000469A000096580A75A470AA640
000469A00009658056A8B10AA640
0001122000021120022120022110
ENDCHAR
STARTCHAR partialdiff
ENCODING 8706
SWIDTH 108 0
DWIDTH 2 0
BBX 1 1 0 0
BITMAP
00
ENDCHAR
STARTCHAR uni2206
ENCODING 8710
SWIDTH 108 0
DWIDTH 2 0
BBX 1 1 0 0
BITMAP
00
ENDCHAR
STARTCHAR product
ENCODING 8719
SWIDTH 521 0
DWIDTH 9 0
BBX 9 13 0 0
BITMAP
0018535000
007B57A000
00A38A7400
0478A65900
095676A910
19965A9570
65AA0957A0
37A73A7580
0A6595A730
0659A47A00
01A9585600
00957A9100
0037A79000
ENDCHAR
STARTCHAR summation
ENCODING 8721
SWIDTH 108 0
DWIDTH 2 0
BBX 1 1 0 0
BITMAP
00
ENDCHAR
STARTCHAR minus
ENCODING 8722
SWIDTH 555 0
DWIDTH 10 0
BBX 10 4 0 6
BITMAP
2888888882
1666666661
1666666661
2AAAAAAAA2
ENDCHAR
STARTCHAR radical
ENCODING 8730
SWIDTH 108 0
DWIDTH 2 0
BBX 1 1 0 0
BITMAP
00
ENDCHAR
STARTCHAR infinity
ENCODING 8734
SWIDTH 108 0
DWIDTH 2 0
BBX 1 1 0 0
BITMAP
00
ENDCHAR
STARTCHAR integral
ENCODING 8747
SWIDTH 362 0
DWIDTH 7 0
BBX 7 18 0 -2
BITMAP
00001300
00198710
00A49910
037A5910
0559A000
05589000
05589000
05589000
05589000
05589000
05589000
05589000
05589000
05589000
6966A000
6A874000
36A60000
23100000
ENDCHAR
STARTCHAR approxequal
ENCODING 8776
SWIDTH 665 0
DWIDTH 12 0
BBX 12 9 0 5
BITMAP
002444441222
097666662A55
3789999994A1
4582AAAAAA40
000000000000
002444441222
097666662A55
3789999994A1
4582AAAAAA40
ENDCHAR
STARTCHAR notequal
ENCODING 8800
SWIDTH 473 0
DWIDTH 9 0
BBX 8 17 0 -2
BITMAP
00005335
0000A856
00028A73
000559A0
299FFFF7
288FFCE6
157EFD84
16BBFF64
00956900
29FFEF97
18FFE975
1BBEF554
1FCCF775
0A856000
28A72000
659A0000
64470000
ENDCHAR
STARTCHAR lessequal
ENCODING 8804
SWIDTH 108 0
DWIDTH 2 0
BBX 1 1 0 0
BITMAP
00
ENDCHAR
STARTCHAR greaterequal
ENCODING 8805
SWIDTH 108 0
DWIDTH 2 0
BBX 1 1 0 0
BITMAP
00
ENDCHAR
STARTCHAR lozenge
ENCODING 9674
SWIDTH 521 0
DWIDTH 9 0
BBX 9 13 0 0
BITMAP
0018535000
007B57A000
00A38A7400
0478A65900
095676A910
19965A9570
65AA0957A0
37A73A7580
0A6595A730
0659A47A00
01A9585600
00957A9100
0037A79000
ENDCHAR
STARTCHAR uniF8FF
ENCODING 63743
SWIDTH 108 0
DWIDTH 2 0
BBX 1 1 0 0
BITMAP
00
ENDCHAR
STARTCHAR uniFB01
ENCODING 64257
SWIDTH 962 0
DWIDTH 17 0
BBX 17 13 0 0
BITMAP
25664A999960664450
37AA68666640AA6680
37AA68555540AA6680
37AA6A888850AA6680
37AA64000000AA6680
37AA6A888820AA6680
37AA68666610AA6680
37AA68666610AA6680
37AA6B999920AA6680
37AA64000000AA6680
37AA64000000AA6680
37AA64000000AA6680
37AA64000000AA6680
ENDCHAR
STARTCHAR uniFB02
ENCODING 64258
SWIDTH 1208 0
DWIDTH 22 0
BBX 22 13 0 0
BITMAP
25664A9999606644500000
37AA68666640AA66800000
37AA68555540AA66800000
37AA6A888850AA66800000
37AA64000000AA66800000
37AA6A888820AA66800000
37AA68666610AA66800000
37AA68666610AA66800000
37AA6B999920AA66800000
37AA64000000AA66933330
37AA64000000AA66B77771
37AA64000000AA66CAAAA2
37AA64000000AA66CAAAA2
ENDCHAR
STARTCHAR .notdef
ENCODING -1
SWIDTH 108 0
DWIDTH 2 0
BBX 1 1 0 0
BITMAP
00
ENDCHAR
ENDFONT
